<?xml version="1.0" encoding="UTF-8" standalone="no"?>
<!DOCTYPE svg PUBLIC "-//W3C//DTD SVG 1.1//EN" "http://www.w3.org/Graphics/SVG/1.1/DTD/svg11.dtd">
<svg width="100%" height="100%" viewBox="0 0 400 300" version="1.1" xmlns="http://www.w3.org/2000/svg" xmlns:xlink="http://www.w3.org/1999/xlink" xml:space="preserve" xmlns:serif="http://www.serif.com/" style="fill-rule:evenodd;clip-rule:evenodd;stroke-linecap:round;stroke-linejoin:round;stroke-miterlimit:1.5;">
    <g transform="matrix(1,0,0,1,103.544,229.762)">
        <text x="0px" y="0px" style="font-family:'LiberationSans', 'Liberation Sans', sans-serif;font-size:60px;">Type-C</text>
    </g>
    <g transform="matrix(1,0,0,1,-23.0032,50.0051)">
        <path d="M353.003,-0.005C380.599,-0.005 403.003,22.399 403.003,49.995C403.003,77.59 380.599,99.994 353.003,99.995L93.003,99.995C65.407,99.995 43.003,77.591 43.003,49.995C43.003,22.399 65.407,-0.005 93.003,-0.005L353.003,-0.005Z" style="fill:rgb(230,230,230);stroke:black;stroke-width:8px;"/>
    </g>
    <g transform="matrix(1,0,0,1,-25.0002,2.55795e-13)">
        <path d="M355,75C368.798,75 380,86.202 380,100C380,113.798 368.798,125 355,125L95,125C81.202,125 70,113.798 70,100C70,86.202 81.202,75 95,75L355,75Z" style="fill:rgb(179,179,179);stroke:black;stroke-width:2px;"/>
    </g>
    <g transform="matrix(9.36582,0,0,9.36582,-1496.02,-1139.59)">
        <g transform="matrix(1.00002,0,0,0.976295,0.141729,11.9059)">
            <rect x="193.537" y="125.886" width="1.388" height="1.203" style="fill:rgb(252,238,33);stroke:black;stroke-width:0.21px;stroke-linecap:butt;stroke-linejoin:miter;stroke-miterlimit:4;"/>
        </g>
        <g transform="matrix(1.00002,0,0,0.976295,0.128439,11.9059)">
            <rect x="191.133" y="125.886" width="1.388" height="1.203" style="fill:rgb(252,238,33);stroke:black;stroke-width:0.21px;stroke-linecap:butt;stroke-linejoin:miter;stroke-miterlimit:4;"/>
        </g>
        <g transform="matrix(1.00002,0,0,0.976295,0.115154,11.9059)">
            <rect x="188.73" y="125.886" width="1.388" height="1.203" style="fill:rgb(252,238,33);stroke:black;stroke-width:0.21px;stroke-linecap:butt;stroke-linejoin:miter;stroke-miterlimit:4;"/>
        </g>
        <g transform="matrix(1.00002,0,0,0.976295,0.101869,11.9059)">
            <rect x="186.327" y="125.886" width="1.388" height="1.203" style="fill:rgb(252,238,33);stroke:black;stroke-width:0.21px;stroke-linecap:butt;stroke-linejoin:miter;stroke-miterlimit:4;"/>
        </g>
        <g transform="matrix(1.00002,0,0,0.976295,0.0885845,11.9059)">
            <rect x="183.924" y="125.886" width="1.388" height="1.203" style="fill:rgb(252,238,33);stroke:black;stroke-width:0.21px;stroke-linecap:butt;stroke-linejoin:miter;stroke-miterlimit:4;"/>
        </g>
        <g transform="matrix(1.00002,0,0,0.976295,0.0752997,11.9059)">
            <rect x="181.521" y="125.886" width="1.388" height="1.203" style="fill:rgb(252,238,33);stroke:black;stroke-width:0.21px;stroke-linecap:butt;stroke-linejoin:miter;stroke-miterlimit:4;"/>
        </g>
        <g transform="matrix(1.00002,0,0,0.976295,0.0620094,11.9059)">
            <rect x="179.117" y="125.886" width="1.388" height="1.203" style="fill:rgb(252,238,33);stroke:black;stroke-width:0.21px;stroke-linecap:butt;stroke-linejoin:miter;stroke-miterlimit:4;"/>
        </g>
        <g transform="matrix(1.00002,0,0,0.976295,0.0487246,11.9059)">
            <rect x="176.714" y="125.886" width="1.388" height="1.203" style="fill:rgb(252,238,33);stroke:black;stroke-width:0.21px;stroke-linecap:butt;stroke-linejoin:miter;stroke-miterlimit:4;"/>
        </g>
        <g transform="matrix(1.00002,0,0,0.976295,0.0354399,11.9059)">
            <rect x="174.311" y="125.886" width="1.388" height="1.203" style="fill:rgb(252,238,33);stroke:black;stroke-width:0.21px;stroke-linecap:butt;stroke-linejoin:miter;stroke-miterlimit:4;"/>
        </g>
        <g transform="matrix(1.00002,0,0,0.976295,0.0221551,11.9059)">
            <rect x="171.908" y="125.886" width="1.388" height="1.203" style="fill:rgb(252,238,33);stroke:black;stroke-width:0.21px;stroke-linecap:butt;stroke-linejoin:miter;stroke-miterlimit:4;"/>
        </g>
        <g transform="matrix(1.00002,0,0,0.976295,0.0088703,11.9059)">
            <rect x="169.505" y="125.886" width="1.388" height="1.203" style="fill:rgb(252,238,33);stroke:black;stroke-width:0.21px;stroke-linecap:butt;stroke-linejoin:miter;stroke-miterlimit:4;"/>
        </g>
        <g transform="matrix(1.00002,0,0,0.976295,-0.00441448,11.9059)">
            <rect x="167.102" y="125.886" width="1.388" height="1.203" style="fill:rgb(252,238,33);stroke:black;stroke-width:0.21px;stroke-linecap:butt;stroke-linejoin:miter;stroke-miterlimit:4;"/>
        </g>
    </g>
    <g transform="matrix(9.36582,0,0,9.36582,-1496.02,-1108.09)">
        <g transform="matrix(1.00002,0,0,0.976295,0.141729,6.44282)">
            <rect x="193.537" y="121.803" width="1.388" height="1.203" style="fill:rgb(252,238,33);stroke:black;stroke-width:0.21px;stroke-linecap:butt;stroke-linejoin:miter;stroke-miterlimit:4;"/>
        </g>
        <g transform="matrix(1.00002,0,0,0.976295,0.128439,6.44282)">
            <rect x="191.133" y="121.803" width="1.388" height="1.203" style="fill:rgb(252,238,33);stroke:black;stroke-width:0.21px;stroke-linecap:butt;stroke-linejoin:miter;stroke-miterlimit:4;"/>
        </g>
        <g transform="matrix(1.00002,0,0,0.976295,0.115154,6.44282)">
            <rect x="188.73" y="121.803" width="1.388" height="1.203" style="fill:rgb(252,238,33);stroke:black;stroke-width:0.21px;stroke-linecap:butt;stroke-linejoin:miter;stroke-miterlimit:4;"/>
        </g>
        <g transform="matrix(1.00002,0,0,0.976295,0.101869,6.44282)">
            <rect x="186.327" y="121.803" width="1.388" height="1.203" style="fill:rgb(252,238,33);stroke:black;stroke-width:0.21px;stroke-linecap:butt;stroke-linejoin:miter;stroke-miterlimit:4;"/>
        </g>
        <g transform="matrix(1.00002,0,0,0.976295,0.0885845,6.44282)">
            <rect x="183.924" y="121.803" width="1.388" height="1.203" style="fill:rgb(252,238,33);stroke:black;stroke-width:0.21px;stroke-linecap:butt;stroke-linejoin:miter;stroke-miterlimit:4;"/>
        </g>
        <g transform="matrix(1.00002,0,0,0.976295,0.0752997,6.44282)">
            <rect x="181.521" y="121.803" width="1.388" height="1.203" style="fill:rgb(252,238,33);stroke:black;stroke-width:0.21px;stroke-linecap:butt;stroke-linejoin:miter;stroke-miterlimit:4;"/>
        </g>
        <g transform="matrix(1.00002,0,0,0.976295,0.0620094,6.44282)">
            <rect x="179.117" y="121.803" width="1.388" height="1.203" style="fill:rgb(252,238,33);stroke:black;stroke-width:0.21px;stroke-linecap:butt;stroke-linejoin:miter;stroke-miterlimit:4;"/>
        </g>
        <g transform="matrix(1.00002,0,0,0.976295,0.0487246,6.44282)">
            <rect x="176.714" y="121.803" width="1.388" height="1.203" style="fill:rgb(252,238,33);stroke:black;stroke-width:0.21px;stroke-linecap:butt;stroke-linejoin:miter;stroke-miterlimit:4;"/>
        </g>
        <g transform="matrix(1.00002,0,0,0.976295,0.0354399,6.44282)">
            <rect x="174.311" y="121.803" width="1.388" height="1.203" style="fill:rgb(252,238,33);stroke:black;stroke-width:0.21px;stroke-linecap:butt;stroke-linejoin:miter;stroke-miterlimit:4;"/>
        </g>
        <g transform="matrix(1.00002,0,0,0.976295,0.0221551,6.44282)">
            <rect x="171.908" y="121.803" width="1.388" height="1.203" style="fill:rgb(252,238,33);stroke:black;stroke-width:0.21px;stroke-linecap:butt;stroke-linejoin:miter;stroke-miterlimit:4;"/>
        </g>
        <g transform="matrix(1.00002,0,0,0.976295,0.0088703,6.44282)">
            <rect x="169.505" y="121.803" width="1.388" height="1.203" style="fill:rgb(252,238,33);stroke:black;stroke-width:0.21px;stroke-linecap:butt;stroke-linejoin:miter;stroke-miterlimit:4;"/>
        </g>
        <g transform="matrix(1.00002,0,0,0.976295,-0.00441448,6.44282)">
            <rect x="167.102" y="121.803" width="1.388" height="1.203" style="fill:rgb(252,238,33);stroke:black;stroke-width:0.21px;stroke-linecap:butt;stroke-linejoin:miter;stroke-miterlimit:4;"/>
        </g>
    </g>
</svg>
