<?xml version="1.0" encoding="utf-8"?>
<!DOCTYPE svg PUBLIC "-//W3C//DTD SVG 1.1//EN" "http://www.w3.org/Graphics/SVG/1.1/DTD/svg11.dtd">
<!-- Generator: Adobe Illustrator 22.1.0, SVG Export Plug-In . SVG Version: 6.00 Build 0)  -->
<svg version="1.1"
	 id="USB" xmlns:cc="http://creativecommons.org/ns#" xmlns:dc="http://purl.org/dc/elements/1.1/" xmlns:rdf="http://www.w3.org/1999/02/22-rdf-syntax-ns#" xmlns:svg="http://www.w3.org/2000/svg"
	 xmlns="http://www.w3.org/2000/svg" xmlns:xlink="http://www.w3.org/1999/xlink" x="0px" y="0px" width="450px" height="300px"
	 viewBox="0 0 450 300" style="enable-background:new 0 0 450 300;" xml:space="preserve">
<style type="text/css">
	.st0{fill:#E6E6E6;}
	.st1{fill:#B3B3B3;stroke:#000000;stroke-width:2;}
	.st2{fill:none;stroke:#000000;stroke-width:8;}
	.st3{font-family:Liberation Sans,sans-serif;}
	.st4{font-size:60px;}
	.st5{font-size:48px;}
	.st6{fill:#FCEE21;stroke:#000000;stroke-width:2;}
</style>
<g id="Type-A">
	<path class="st0" d="M395.4,53.9H54.6c-4.5,0-8.1,3.6-8.1,8.1v58.9h357V62C403.5,57.5,399.9,53.9,395.4,53.9z"/>
	<path class="st1" d="M395.4,164.9H54.6c-4.5,0-8.1-3.6-8.1-8.1v-35.9h357v35.9C403.5,161.3,399.9,164.9,395.4,164.9z"/>
	<path class="st2" d="M392.2,165.9H57.8c-6.3,0-11.3-5.1-11.3-11.3V65.2c0-6.3,5.1-11.3,11.3-11.3h334.3c6.3,0,11.3,5.1,11.3,11.3
		v89.3C403.5,160.8,398.4,165.9,392.2,165.9z"/>
</g>
<g id="Numbers">
	<text transform="matrix(1 0 0 1 128.3645 278.1247)" class="st3 st4">Type-A</text>
	<g>
		<text transform="matrix(1 0 0 1 89.9527 209.7036)" class="st3 st5">4</text>
		<text transform="matrix(1 0 0 1 176.9108 209.7036)" class="st3 st5">3</text>
		<text transform="matrix(1 0 0 1 246.2888 209.7036)" class="st3 st5">2</text>
		<text transform="matrix(1 0 0 1 333.3521 209.7036)" class="st3 st5">1</text>
	</g>
</g>
<rect x="85.8" y="114.1" class="st6" width="35" height="13.5"/>
<rect x="172.8" y="114.1" class="st6" width="35" height="13.5"/>
<rect x="242.1" y="114.1" class="st6" width="35" height="13.5"/>
<rect x="329.2" y="114.1" class="st6" width="35" height="13.5"/>
</svg>
