<?xml version="1.0" encoding="UTF-8" standalone="no"?>
<!-- Created with Inkscape (http://www.inkscape.org/) -->

<svg
   xmlns:dc="http://purl.org/dc/elements/1.1/"
   xmlns:cc="http://creativecommons.org/ns#"
   xmlns:rdf="http://www.w3.org/1999/02/22-rdf-syntax-ns#"
   xmlns:svg="http://www.w3.org/2000/svg"
   xmlns="http://www.w3.org/2000/svg"
   xmlns:xlink="http://www.w3.org/1999/xlink"
   xmlns:sodipodi="http://sodipodi.sourceforge.net/DTD/sodipodi-0.dtd"
   xmlns:inkscape="http://www.inkscape.org/namespaces/inkscape"
   width="580.84375"
   height="237.375"
   id="svg1901"
   sodipodi:version="0.32"
   inkscape:version="0.48.2 r9819"
   sodipodi:docname="USB signal example.svg"
   version="1.1">
  <sodipodi:namedview
     id="base"
     pagecolor="#ffffff"
     bordercolor="#666666"
     borderopacity="1.0"
     inkscape:pageopacity="0.0"
     inkscape:pageshadow="2"
     inkscape:zoom="0.98994949"
     inkscape:cx="323.21444"
     inkscape:cy="114.50933"
     inkscape:document-units="px"
     inkscape:current-layer="layer1"
     inkscape:window-width="1280"
     inkscape:window-height="753"
     inkscape:window-x="0"
     inkscape:window-y="26"
     showgrid="true"
     inkscape:window-maximized="1"
     fit-margin-top="0"
     fit-margin-left="0"
     fit-margin-right="0"
     fit-margin-bottom="0">
    <inkscape:grid
       originx="-4px"
       spacingy="3.8px"
       spacingx="3.8px"
       snapvisiblegridlinesonly="true"
       enabled="false"
       visible="true"
       empspacing="5"
       id="grid5702"
       type="xygrid" />
  </sodipodi:namedview>
  <defs
     id="defs1903">
    <marker
       style="overflow:visible"
       id="Arrow1Mend"
       refX="0"
       refY="0"
       orient="auto"
       inkscape:stockid="Arrow1Mend">
      <path
         transform="matrix(-0.4,0,0,-0.4,-4,0)"
         style="fill-rule:evenodd;stroke:#000000;stroke-width:1pt;marker-start:none"
         d="M 0,0 5,-5 -12.5,0 5,5 0,0 z"
         id="path4480"
         inkscape:connector-curvature="0" />
    </marker>
    <marker
       style="overflow:visible"
       id="Arrow1Mstart"
       refX="0"
       refY="0"
       orient="auto"
       inkscape:stockid="Arrow1Mstart">
      <path
         transform="matrix(0.4,0,0,0.4,4,0)"
         style="fill-rule:evenodd;stroke:#000000;stroke-width:1pt;marker-start:none"
         d="M 0,0 5,-5 -12.5,0 5,5 0,0 z"
         id="path4477"
         inkscape:connector-curvature="0" />
    </marker>
    <use
       height="1052.3622"
       width="744.09448"
       y="0"
       x="0"
       style="fill:currentColor;stroke:none"
       xlink:href="#gpPt11"
       id="gpPt12" />
    <use
       height="1052.3622"
       width="744.09448"
       y="0"
       x="0"
       style="stroke:currentColor"
       xlink:href="#gpPt3"
       id="gpPt11"
       transform="matrix(0.70710678,0.70710678,-0.70710678,0.70710678,0,0)" />
    <use
       height="1052.3622"
       width="744.09448"
       y="0"
       x="0"
       style="fill:currentColor;stroke:none"
       xlink:href="#gpPt9"
       id="gpPt10" />
    <use
       height="1052.3622"
       width="744.09448"
       y="0"
       x="0"
       style="stroke:currentColor"
       xlink:href="#gpPt7"
       id="gpPt9"
       transform="scale(-1,-1)" />
    <use
       height="1052.3622"
       width="744.09448"
       y="0"
       x="0"
       style="fill:currentColor;stroke:none"
       xlink:href="#gpPt7"
       id="gpPt8" />
    <path
       style="stroke:currentColor;stroke-width:0.222"
       inkscape:connector-curvature="0"
       id="gpPt7"
       d="m 0,-1.33 -1.33,2 2.66,0 z" />
    <use
       height="1052.3622"
       width="744.09448"
       y="0"
       x="0"
       style="fill:currentColor;stroke:none"
       xlink:href="#gpPt5"
       id="gpPt6" />
    <circle
       style="stroke:currentColor;stroke-width:0.222"
       sodipodi:ry="1"
       sodipodi:rx="1"
       sodipodi:cy="0"
       sodipodi:cx="0"
       id="gpPt5"
       cx="0"
       cy="0"
       r="1" />
    <rect
       style="fill:currentColor;stroke:currentColor;stroke-width:0.222"
       id="gpPt4"
       x="-1"
       y="-1"
       width="2"
       height="2" />
    <rect
       style="stroke:currentColor;stroke-width:0.222"
       id="gpPt3"
       x="-1"
       y="-1"
       width="2"
       height="2" />
    <path
       style="stroke:currentColor;stroke-width:0.222"
       inkscape:connector-curvature="0"
       id="gpPt2"
       d="M -1,0 1,0 M 0,-1 0,1 m -1,-2 2,2 m -2,0 2,-2" />
    <path
       style="stroke:currentColor;stroke-width:0.222"
       inkscape:connector-curvature="0"
       id="gpPt1"
       d="M -1,-1 1,1 M 1,-1 -1,1" />
    <path
       style="stroke:currentColor;stroke-width:0.222"
       inkscape:connector-curvature="0"
       id="gpPt0"
       d="M -1,0 H 1 M 0,-1 v 2" />
    <circle
       style="stroke-width:0.5"
       sodipodi:ry="0.5"
       sodipodi:rx="0.5"
       sodipodi:cy="0"
       sodipodi:cx="0"
       cy="0"
       cx="0"
       id="gpDot"
       r="0.5" />
  </defs>
  <metadata
     id="metadata1906">
    <rdf:RDF>
      <cc:Work
         rdf:about="">
        <dc:format>image/svg+xml</dc:format>
        <dc:type
           rdf:resource="http://purl.org/dc/dcmitype/StillImage" />
        <dc:title />
      </cc:Work>
    </rdf:RDF>
  </metadata>
  <g
     transform="translate(2.53125,-774.08093)"
     id="layer1"
     inkscape:groupmode="layer"
     inkscape:label="Taso 1">
    <g
       transform="translate(33.403125,290.93894)"
       id="g3059"
       style="color:#ffffff;fill:none;stroke:currentColor;stroke-width:1;stroke-linecap:butt;stroke-linejoin:miter" />
    <path
       sodipodi:nodetypes="cccccccccccccccccccccccccccccccccccccccc"
       inkscape:connector-curvature="0"
       d="m 527.12982,805.35673 0,190.31867 m -18.71428,-190.31867 0,190.31867 m -18.71429,-190.31867 0,190.31867 m -18.71428,-190.31867 0,190.31867 m -18.7143,-190.31867 0,190.31867 m -18.71428,-190.31867 0,190.31867 m -18.71429,-190.31867 0,190.31867 m -18.71428,-190.31867 0,190.31867 m -18.71429,-190.31867 0,190.31867 m -18.71428,-190.31867 0,190.31867 m -18.71429,-190.31867 0,190.31867 m -18.71428,-190.31867 0,190.31867 m -18.71429,-190.31867 0,190.31867 m -18.71428,-190.31867 0,190.31867 m -18.71429,-190.31867 0,190.31867 m -18.71429,-190.31867 0,190.31867 m -18.71428,-190.31867 0,190.31867 m -18.71429,-190.31867 0,190.31867 m -18.71429,-196.47827 0,196.47827 m -18.71428,-196.47827 0,196.47827"
       style="color:#000000;fill:none;stroke:#babdb6;stroke-width:1;stroke-linecap:butt;stroke-linejoin:miter;stroke-miterlimit:4;stroke-opacity:1;stroke-dasharray:none;stroke-dashoffset:0;marker:none;visibility:visible;display:inline;overflow:visible;enable-background:accumulate"
       id="path3611" />
    <path
       sodipodi:nodetypes="cccccccccccccccccccccccccccccccccccccccccccccccccccccccccccccccccccccccccccccccccccccccccccccccccccccccccccccccccccccccccccccccccccccccccccccccccccccccccccccccccccccccccccccccccccccccccccccc"
       inkscape:connector-curvature="0"
       id="path3173"
       d="m 232.53676,879.89097 -0.42086,-0.6744 -3.28269,-10.47798 -2.94601,-10.48895 -3.19853,-4.42476 -3.03018,-1.6449 -3.19853,1.6449 -2.94601,6.07514 -3.28269,10.48895 -2.77768,9.49652 m 25.08318,0.005 2.52516,4.30963 3.19852,1.64489 2.94602,-1.64489 3.2827,-3.88195 0.16833,-0.42768 m 24.99901,0.005 -0.42086,-0.67989 -3.19852,-10.47796 -2.94602,-9.38687 -3.2827,-5.52684 -2.946,-1.6449 -3.19853,1.6449 -3.03018,6.07514 -3.19853,10.48895 -2.77767,9.502 m 24.99901,0.005 2.52516,4.30414 3.2827,1.10208 2.946,-1.10208 3.19853,-3.88195 0.16834,-0.42219 m 43.34845,0.005 -0.084,-0.12611 -3.2827,-9.92968 -2.94601,-8.2793 -3.19853,-3.3172 -3.03017,0 -3.19853,0 -2.94601,0 -3.2827,-1.66683 -2.94602,-1.10756 -3.19867,-1.65036 -2.94602,-0.54282 -3.2827,0.54282 -2.946,6.07514 -3.19853,10.48895 -2.86184,9.50749 m 43.34845,0.005 2.86184,4.84147 3.19852,0.55927 2.94602,-0.55927 3.28269,-1.10756 2.94601,-1.65038 3.19853,-1.10208 3.03018,0.54282 3.19853,0 2.946,0 1.26258,-1.51879 m 63.71801,0.005 -0.084,-0.13708 -2.94615,-8.84403 -3.19852,-9.92968 -2.94601,-1.65038 -3.2827,0 -2.94601,-1.10208 -3.19853,0 -3.03017,0 -3.19854,0 -2.946,0 -3.2827,0 -2.94602,0 -3.19852,-0.56474 -2.94601,-1.10208 -3.2827,-1.10757 -2.94601,-1.65037 -3.19853,-1.6449 -3.03017,1.6449 -2.94602,4.96758 -3.19852,9.94613 -2.94602,8.8276 -2.02012,2.34123 m 63.71801,0.005 3.19853,5.93258 2.946,-0.54281 3.19853,-0.55927 3.03018,-1.10756 3.19853,-1.65038 2.94601,-0.55926 3.28269,0 2.94602,0 3.19852,0 1.17841,-1.50782 m 26.51409,0 -2.86184,-10.07224 -3.28269,-10.49443 -2.94601,-5.52684 -3.19853,-1.6449 -3.03018,1.10208 -3.19853,5.5104 -2.946,9.94614 -3.2827,8.8276 -1.76761,2.3522 m 26.51409,0 0.084,0.40026 3.19852,5.52684 2.94601,0 3.2827,-1.64489 2.94601,-1.66683 3.19852,-0.5483 3.03018,-0.55926 3.19853,-1.10756 2.94601,0 3.2827,0 2.94602,1.10756 3.19852,-1.10756 2.10429,-0.39478 m 4.96613,0 -0.84172,-0.14804 -3.28269,0 -0.84172,0.14804 m 4.96613,0 2.1043,0.39478 2.946,0 3.2827,0 2.94602,0 3.19852,0 2.94602,0 3.2827,0 2.946,0 3.19853,0 3.03018,0 3.19853,0 2.946,0 3.2827,0 2.94602,0 3.19852,0 2.94602,0 m -367.74619,-0.43413 2.77766,4.31511 3.03018,1.64489 3.19853,-1.64489 2.94601,-3.88195 0.16834,-0.43316 m -12.12072,0 -0.42086,-0.66892 -2.946,-10.47796 -3.2827,-11.05369 -2.94602,-4.40284 -3.19852,-0.55926 -2.94601,0.55926 -3.2827,5.5104 -2.94601,9.94613 -3.19852,8.8276 -3.03019,2.20964 -0.5892,0.10418 m -8.16466,0 2.60933,0.43864 2.94601,0 2.60932,-0.43864 m -8.16466,0 -0.67337,-0.10418 -0.5892,0.10418 z m -24.83066,0 2.60932,0.43864 3.03019,0 3.19852,0 2.94601,0 3.2827,0 2.94601,0 3.19853,0 2.35681,-0.43864 m -23.56809,0 -0.5892,-0.10418 -0.58921,0.10418 z m -9.17472,0 2.35681,0.43864 3.2827,0 2.3568,-0.43864 m -7.99631,0 -0.5892,-0.10418 -0.5892,0.0987 z m -1.1784,-0.005 -2.6935,0 0,0.44412 0.084,0 z"
       style="color:#008000;fill:none;stroke:#4e9a06;stroke-width:0.99999994;stroke-linecap:butt;stroke-linejoin:miter" />
    <path
       sodipodi:nodetypes="ccccccccccccccccccccccccccccccccccccccccccccccccccccccccccccccccccccccccccccccccccccccccccccccccccccccccccccccccccccccccccccccccccccccccccccccccccccccccccccccccccccc"
       inkscape:connector-curvature="0"
       id="path3163"
       d="m 355.82231,815.39747 -3.19853,-2.75794 -3.03018,0 -3.19852,0 -2.94602,-0.55926 -3.2827,-1.09112 -2.946,-1.66682 -3.19853,-2.75246 -2.94601,-1.66683 -3.2827,1.10756 -2.94601,6.06967 -0.92589,3.3172 m 31.90109,0 2.94601,10.48894 3.2827,11.03725 2.94601,6.08611 2.94601,0.54829 3.19852,-1.65037 3.03019,-1.66683 3.19853,-2.20964 2.94601,-1.10756 3.28269,-0.54282 2.94601,0 3.19853,0 2.94601,0.54282 3.2827,-0.54282 2.94601,0 3.19852,0 3.03019,-0.54281 3.19853,0 2.946,-2.77439 3.2827,-10.49443 1.93595,-7.17174 m 31.98526,0 -2.94601,-2.75794 -3.2827,0 -2.946,-0.55926 -3.19853,0 -3.03019,-1.09112 -3.19852,-1.66682 -2.94601,-2.75246 -3.2827,-1.66683 -2.94601,0.55927 -3.19853,6.07514 -1.01006,3.86002 m 31.98526,0 3.19853,10.48894 2.94601,11.59651 3.28269,5.52685 2.94602,0.54829 3.19852,-1.65037 3.03019,-2.77439 3.19853,-1.10208 2.946,-0.5483 3.2827,-0.55926 2.94601,-0.54282 3.19853,0 2.94601,0 3.28269,0 2.94602,0 3.19852,-0.54281 3.03019,0 3.19853,0 2.946,-2.77439 3.2827,-10.49443 1.85178,-7.17174 m -226.927,0 2.02012,8.2793 3.19852,12.70407 3.03018,6.06966 3.19854,1.10756 2.946,-1.65037 3.2827,-2.20964 2.94601,-1.66683 3.19853,-1.10756 2.946,-1.08563 3.2827,0.54281 2.94602,-0.54281 3.19852,-2.21513 3.03018,-10.48894 2.27264,-7.73649 m -41.49666,0 -0.9259,-3.86002 -3.2827,-4.42477 -2.946,-1.65037 -3.19853,1.10756 -2.94601,6.06966 -0.75754,2.75794 m -23.2314,0 2.10429,8.2793 3.28269,12.16126 2.94602,6.61247 3.19852,1.10756 3.03019,-1.65037 3.19853,-4.42477 2.946,-12.69859 2.52516,-9.38686 m -23.2314,0 -0.84172,-3.3172 -3.19853,-4.96759 -2.94601,-1.65037 -3.2827,1.10756 -2.946,6.61248 -0.58921,2.21512 m -23.31557,0 2.10429,8.2793 3.19853,12.70407 2.946,6.62893 3.2827,1.10756 2.94602,-2.20964 3.19852,-4.42477 3.03019,-12.13932 2.60932,-9.94613 m -23.31557,0 -0.84172,-3.3172 -3.03019,-4.40284 -3.19852,-2.21512 -2.94601,1.10756 -3.2827,6.61248 -0.50503,2.21512 m -24.24146,0 3.19853,10.48894 3.03018,11.59651 3.19853,5.52685 2.94601,1.10756 3.2827,-1.66683 2.946,-4.41928 3.19853,-12.68762 2.44098,-9.94613 m -24.24146,0 -2.94601,-2.21512 -3.2827,0 -2.94601,0 -3.19852,-0.54282 -2.94602,0.54282 -3.28269,0.56474 -2.94601,0 -3.19853,0 -3.03018,0 -3.19853,0 -2.94601,-0.56474 -3.2827,0 -2.94601,0 -3.19852,-0.54282 -2.44099,0 m 441.9858,1.10756 -3.19853,0 -2.94601,0 -3.28269,0 -2.94601,0 -3.19853,0 -3.03019,0 -3.19852,-0.56474 -2.94601,0 -3.2827,0 -2.94601,0 -3.19853,-0.54282 -2.946,-0.55926 -3.2827,-1.09112 -2.94601,-2.20964 -3.19853,-2.20964 -3.03018,-1.66683 -2.94601,0.55927 -3.19853,5.52684 -1.09423,4.40832"
       style="color:#ff0000;fill:none;stroke:#ef2929;stroke-width:0.99999994;stroke-linecap:butt;stroke-linejoin:miter" />
    <text
       sodipodi:linespacing="125%"
       id="text3690"
       y="831.64386"
       x="147.1929"
       style="font-size:16px;font-style:normal;font-variant:normal;font-weight:normal;font-stretch:normal;text-align:start;line-height:125%;letter-spacing:0px;word-spacing:0px;writing-mode:lr-tb;text-anchor:start;fill:#ef2929;fill-opacity:1;stroke:none;font-family:FreeSans;-inkscape-font-specification:FreeSans"
       xml:space="preserve"><tspan
         y="831.64386"
         x="147.1929"
         id="tspan3692"
         sodipodi:role="line">D+</tspan></text>
    <text
       xml:space="preserve"
       style="font-size:16px;font-style:normal;font-variant:normal;font-weight:normal;font-stretch:normal;text-align:start;line-height:125%;letter-spacing:0px;word-spacing:0px;writing-mode:lr-tb;text-anchor:start;fill:#4e9a06;fill-opacity:1;stroke:none;font-family:FreeSans;-inkscape-font-specification:FreeSans"
       x="148.20305"
       y="872.04999"
       id="text3694"
       sodipodi:linespacing="125%"><tspan
         sodipodi:role="line"
         id="tspan3696"
         x="148.20305"
         y="872.04999">D-</tspan></text>
    <path
       inkscape:connector-curvature="0"
       id="path3698"
       d="m 170.77775,801.45782 19.87832,0"
       style="color:#000000;fill:none;stroke:#000000;stroke-width:1;stroke-linecap:butt;stroke-linejoin:miter;stroke-miterlimit:4;stroke-opacity:1;stroke-dasharray:none;stroke-dashoffset:0;marker:none;marker-start:url(#Arrow1Mend);marker-end:url(#Arrow1Mstart);visibility:visible;display:inline;overflow:visible;enable-background:accumulate" />
    <g
       transform="matrix(0.52667335,0,0,0.52667335,112.46491,652.09434)"
       id="g5525">
      <g
         style="font-style:normal;font-variant:normal;font-weight:normal;font-stretch:normal;letter-spacing:normal;word-spacing:normal;text-anchor:start;fill:none;stroke:#000000;stroke-width:1.89871013;stroke-linecap:butt;stroke-linejoin:miter;stroke-miterlimit:10.43299961;stroke-opacity:1;stroke-dasharray:none;stroke-dashoffset:0"
         id="content"
         transform="matrix(0.42857143,0,0,-0.42857143,-75,450)"
         xml:space="preserve"
         stroke-miterlimit="10.433"
         font-style="normal"
         font-variant="normal"
         font-weight="normal"
         font-stretch="normal"
         font-size-adjust="none"
         letter-spacing="normal"
         word-spacing="normal"><path
           style="fill:#000000;stroke-width:0"
           inkscape:connector-curvature="0"
           d="m 477.54,440.98 -0.04,0.06 -0.03,0.06 -0.03,0.05 -0.02,0.05 -0.03,0.05 -0.03,0.05 -0.03,0.05 -0.02,0.04 -0.03,0.04 -0.03,0.04 -0.02,0.04 -0.03,0.03 -0.03,0.04 -0.03,0.03 -0.03,0.03 -0.03,0.03 -0.03,0.02 -0.04,0.03 -0.04,0.02 -0.03,0.02 -0.05,0.02 -0.04,0.01 -0.05,0.02 -0.04,0.01 -0.06,0.01 -0.05,0.01 -0.06,0.01 -0.06,0.01 -0.07,0 -0.07,0.01 -0.07,0 -0.04,0 -0.04,0 c -0.85,0 -0.94,-0.25 -1.28,-0.89 l -0.32,-4.09 13.41,-26.91 h -26.86 l 13.45,26.91 0.32,4.09 -16.85,-33.78 c -0.25,-0.45 -0.25,-0.55 -0.25,-0.59 0,-0.41 0.3,-0.41 1.1,-0.41 h 34.58 c 0.79,0 1.09,0 1.09,0.41 0,0.04 0,0.14 -0.25,0.59 z"
           id="path5528" /><path
           style="fill:#000000;stroke-width:0"
           inkscape:connector-curvature="0"
           d="m 507.3,426.12 h 4.69 c 0.99,0 1.49,0 1.49,1 0,0.55 -0.5,0.55 -1.39,0.55 h -4.39 c 1.79,7.08 2.04,8.08 2.04,8.37 0,0.85 -0.59,1.35 -1.44,1.35 -0.15,0 -1.54,-0.05 -2,-1.8 l -1.93,-7.92 h -4.69 c -1,0 -1.5,0 -1.5,-0.94 0,-0.61 0.41,-0.61 1.41,-0.61 h 4.37 c -3.58,-14.14 -3.78,-14.98 -3.78,-15.89 0,-2.69 1.89,-4.58 4.58,-4.58 5.08,0 7.92,7.27 7.92,7.67 0,0.5 -0.39,0.5 -0.59,0.5 -0.46,0 -0.5,-0.15 -0.75,-0.7 -2.14,-5.17 -4.79,-6.37 -6.47,-6.37 -1.05,0 -1.55,0.65 -1.55,2.29 0,1.19 0.09,1.55 0.3,2.39 z"
           id="path5530" /><path
           style="fill:#000000;stroke-width:0"
           inkscape:connector-curvature="0"
           d="m 563.07,422.5 0.14,0 0.15,0 0.14,0 0.08,0.01 0.07,0 0.07,0.01 0.07,0.01 0.07,0.01 0.07,0.01 0.07,0.01 0.07,0.02 0.06,0.02 0.06,0.02 0.06,0.02 0.06,0.03 0.06,0.03 0.05,0.04 0.05,0.03 0.05,0.05 0.04,0.04 0.04,0.05 0.02,0.03 0.02,0.03 0.01,0.02 0.02,0.03 0.01,0.03 0.02,0.04 0.01,0.03 0.01,0.04 0.01,0.03 0.01,0.04 0.01,0.04 0,0.04 0.01,0.04 0,0.04 0,0.04 0,0.05 c 0,1 -0.95,1 -1.64,1 h -29.84 c -0.71,0 -1.64,0 -1.64,-1 0,-0.98 0.93,-0.98 1.68,-0.98 z"
           id="path5532" /><path
           style="fill:#000000;stroke-width:0"
           inkscape:connector-curvature="0"
           d="m 563.12,412.82 0.07,0 0.06,0 0.14,0.01 0.14,0 0.07,0 0.07,0.01 0.07,0.01 0.07,0 0.06,0.01 0.07,0.02 0.07,0.01 0.06,0.02 0.07,0.02 0.06,0.02 0.06,0.02 0.06,0.03 0.05,0.03 0.05,0.04 0.05,0.04 0.05,0.04 0.04,0.05 0.02,0.02 0.02,0.03 0.02,0.02 0.02,0.03 0.01,0.03 0.02,0.03 0.01,0.03 0.02,0.03 0.01,0.04 0.01,0.03 0.01,0.04 0.01,0.04 0.01,0.04 0,0.04 0.01,0.04 0,0.04 0,0.05 0,0.04 c 0,1 -0.95,1 -1.69,1 h -29.75 c -0.75,0 -1.68,0 -1.68,-1 0,-1 0.93,-1 1.64,-1 z"
           id="path5534" /><path
           style="fill:#000000;stroke-width:0"
           inkscape:connector-curvature="0"
           d="m 656.19,447.92 0,0.04 0,0.04 0,0.05 0,0.04 0,0.03 0,0.04 0,0.04 0,0.03 -0.01,0.04 0,0.03 0,0.03 0,0.03 0,0.03 -0.01,0.03 0,0.03 0,0.02 -0.01,0.03 0,0.02 -0.01,0.03 0,0.02 -0.02,0.04 -0.01,0.04 -0.02,0.03 -0.02,0.03 -0.02,0.03 -0.02,0.03 -0.03,0.02 -0.03,0.02 -0.03,0.02 -0.04,0.01 -0.04,0.01 -0.05,0.02 -0.02,0 -0.02,0 -0.03,0.01 -0.03,0 -0.02,0.01 -0.03,0 -0.03,0 -0.03,0 -0.03,0 -0.04,0.01 -0.03,0 -0.04,0 -0.03,0 -0.04,0 -0.04,0 -0.04,0 -0.04,0 -0.05,0 -0.04,0 -0.04,0 c -2.24,-2.2 -5.4,-2.23 -6.83,-2.23 v -1.25 c 0.84,0 3.14,0 5.04,0.97 v -17.77 c 0,-1.16 0,-1.61 -3.48,-1.61 h -1.31 v -1.25 c 0.62,0.03 4.9,0.14 6.2,0.14 1.08,0 5.47,-0.11 6.23,-0.14 v 1.25 h -1.32 c -3.49,0 -3.49,0.45 -3.49,1.61 z"
           id="path5536" /><polyline
           style="fill:#000000;fill-rule:nonzero;stroke-width:0"
           points="587,418 721.04,418 721.04,420.04 587,420.04 "
           id="polyline5538" /><path
           style="fill:#000000;stroke-width:0"
           inkscape:connector-curvature="0"
           d="m 599.07,411.2 0,0.04 0,0.04 0,0.04 0,0.04 0,0.04 0,0.04 0,0.04 0,0.03 -0.01,0.03 0,0.04 0,0.03 0,0.03 0,0.03 -0.01,0.03 0,0.02 -0.01,0.03 0,0.03 0,0.02 -0.01,0.02 0,0.03 -0.02,0.04 -0.01,0.04 -0.02,0.03 -0.02,0.03 -0.02,0.03 -0.02,0.02 -0.03,0.03 -0.03,0.02 -0.04,0.01 -0.03,0.02 -0.04,0.01 -0.05,0.01 -0.02,0.01 -0.03,0 -0.02,0.01 -0.03,0 -0.03,0 -0.02,0.01 -0.03,0 -0.03,0 -0.04,0 -0.03,0 -0.03,0.01 -0.04,0 -0.04,0 -0.03,0 -0.04,0 -0.04,0 -0.04,0 -0.05,0 -0.04,0 -0.05,0 c -2.23,-2.2 -5.39,-2.23 -6.82,-2.23 v -1.25 c 0.84,0 3.14,0 5.04,0.96 V 391.9 c 0,-1.16 0,-1.61 -3.48,-1.61 h -1.31 v -1.25 c 0.62,0.03 4.9,0.14 6.2,0.14 1.08,0 5.47,-0.11 6.23,-0.14 v 1.25 h -1.33 c -3.48,0 -3.48,0.45 -3.48,1.61 z"
           id="path5540" /><path
           style="fill:#000000;stroke-width:0"
           inkscape:connector-curvature="0"
           d="m 624.79,395.38 h -1.19 c -0.09,-0.76 -0.45,-2.83 -0.9,-3.17 -0.27,-0.2 -2.96,-0.2 -3.44,-0.2 h -6.42 c 3.65,3.23 4.87,4.2 6.96,5.84 2.58,2.06 4.99,4.22 4.99,7.53 0,4.22 -3.69,6.8 -8.16,6.8 -4.31,0 -7.25,-3.03 -7.25,-6.23 0,-1.79 1.5,-1.96 1.86,-1.96 0.83,0 1.85,0.6 1.85,1.85 0,0.62 -0.25,1.84 -2.07,1.84 1.08,2.47 3.46,3.23 5.1,3.23 3.48,0 5.29,-2.7 5.29,-5.53 0,-3.03 -2.15,-5.43 -3.28,-6.68 l -8.39,-8.3 c -0.36,-0.31 -0.36,-0.39 -0.36,-1.36 h 14.36 z"
           id="path5542" /><path
           style="fill:#000000;stroke-width:0"
           inkscape:connector-curvature="0"
           d="m 648.09,412.07 -0.03,0.07 -0.02,0.06 -0.03,0.07 -0.03,0.05 -0.03,0.06 -0.03,0.05 -0.03,0.04 -0.03,0.04 -0.03,0.04 -0.03,0.04 -0.04,0.03 -0.03,0.03 -0.03,0.03 -0.04,0.02 -0.03,0.02 -0.04,0.02 -0.04,0.02 -0.04,0.01 -0.04,0.01 -0.04,0.02 -0.04,0 -0.05,0.01 -0.05,0.01 -0.04,0 -0.06,0.01 -0.05,0 -0.05,0 -0.06,0 -0.06,0.01 -0.06,0 -0.06,0 -0.07,0 h -6.11 v -1.25 h 0.85 c 2.67,0 2.75,-0.35 2.75,-1.58 V 392.8 c 0,-0.93 0,-2.51 -3.6,-2.51 v -1.25 c 1.44,0.11 2.83,0.14 4.25,0.14 1.44,0 2.83,-0.03 4.25,-0.14 v 1.25 c -3.58,0 -3.58,1.58 -3.58,2.51 v 18.36 l 0.03,0.04 9.07,-21.36 c 0.17,-0.41 0.34,-0.8 0.86,-0.8 0.25,0 0.56,0.11 0.84,0.73 l 9.2,21.78 0.03,-0.04 v -19.64 c 0,-1.19 -0.06,-1.58 -2.74,-1.58 h -0.85 v -1.25 c 1.67,0.06 3.63,0.14 5.06,0.14 1.43,0 3.38,-0.08 5.05,-0.14 v 1.25 h -0.84 c -2.68,0 -2.75,0.36 -2.75,1.58 v 18.14 c 0,1.19 0.07,1.58 2.75,1.58 h 0.84 v 1.25 h -6.06 c -0.7,0 -1.02,0 -1.3,-0.69 l -8.36,-19.77 z"
           id="path5544" /><path
           style="fill:#000000;stroke-width:0"
           inkscape:connector-curvature="0"
           d="m 698.19,410.01 0,0.11 0,0.1 0.01,0.1 0,0.1 0.01,0.09 0.01,0.08 0.01,0.09 0.02,0.08 0.02,0.07 0.02,0.07 0.03,0.07 0.04,0.06 0.04,0.06 0.05,0.05 0.05,0.05 0.06,0.05 0.07,0.05 0.08,0.04 0.05,0.02 0.04,0.02 0.05,0.01 0.05,0.02 0.05,0.02 0.05,0.01 0.06,0.02 0.06,0.01 0.06,0.01 0.07,0.01 0.06,0.02 0.07,0.01 0.08,0.01 0.07,0.01 0.08,0 0.09,0.01 0.08,0.01 0.09,0.01 0.09,0 0.1,0.01 0.09,0 0.11,0.01 0.1,0 0.11,0 0.11,0 0.12,0 0.12,0.01 0.12,0 h 0.84 v 1.25 c -1.75,-0.07 -3.96,-0.14 -5.23,-0.14 -1.28,0 -3.52,0.07 -5.25,0.14 v -1.25 h 0.83 c 2.69,0 2.75,-0.35 2.75,-1.58 v -7.97 h -11.64 v 7.97 c 0,1.19 0.08,1.58 2.76,1.58 h 0.83 v 1.25 c -1.73,-0.07 -3.97,-0.14 -5.22,-0.14 -1.29,0 -3.53,0.07 -5.26,0.14 v -1.25 h 0.83 c 2.68,0 2.76,-0.35 2.76,-1.58 v -18.14 c 0,-1.19 -0.08,-1.58 -2.76,-1.58 h -0.83 v -1.25 c 1.73,0.06 3.97,0.14 5.22,0.14 1.29,0 3.53,-0.08 5.26,-0.14 v 1.25 H 686 c -2.68,0 -2.76,0.36 -2.76,1.58 v 8.92 h 11.64 v -8.92 c 0,-1.19 -0.06,-1.58 -2.75,-1.58 h -0.83 v -1.25 c 1.73,0.06 3.97,0.14 5.22,0.14 1.3,0 3.51,-0.08 5.26,-0.14 v 1.25 h -0.84 c -2.67,0 -2.75,0.36 -2.75,1.58 z"
           id="path5546" /><path
           style="fill:#000000;stroke-width:0"
           inkscape:connector-curvature="0"
           d="m 719.15,402.84 0.02,0.02 0.03,0.03 0.02,0.03 0.02,0.02 0.02,0.03 0.02,0.02 0.01,0.03 0.02,0.02 0.01,0.02 0.02,0.02 0.01,0.02 0.02,0.02 0.01,0.02 0.01,0.02 0.01,0.02 0.01,0.01 0.01,0.02 0.01,0.02 0.01,0.02 0,0.01 0.01,0.02 0,0.02 0.01,0.02 0,0.01 0.01,0.02 0,0.02 0,0.02 0.01,0.02 0,0.02 0,0.02 0,0.02 0,0.02 c 0,0.56 -0.42,0.56 -0.98,0.56 h -12.41 l -0.42,-5.81 h 1.18 c 0.25,3.66 1.05,4.85 5.02,4.85 H 716 l -10.53,-12.72 c -0.32,-0.39 -0.32,-0.53 -0.32,-0.71 0,-0.62 0.35,-0.62 0.97,-0.62 h 12.83 l 0.62,6.76 h -1.18 c -0.35,-4.07 -1.08,-5.65 -5.42,-5.65 h -4.3 z"
           id="path5548" /><path
           style="fill:#000000;stroke-width:0"
           inkscape:connector-curvature="0"
           d="m 777.21,428.71 0,0.1 -0.01,0.09 0,0.09 -0.01,0.09 -0.01,0.08 -0.01,0.08 -0.01,0.08 -0.01,0.07 -0.02,0.07 -0.01,0.07 -0.02,0.06 -0.02,0.06 -0.02,0.06 -0.02,0.05 -0.02,0.05 -0.03,0.05 -0.02,0.04 -0.03,0.04 -0.02,0.04 -0.03,0.04 -0.03,0.03 -0.03,0.03 -0.03,0.02 -0.03,0.03 -0.03,0.02 -0.03,0.02 -0.03,0.01 -0.03,0.01 -0.03,0.01 -0.04,0.01 -0.03,0 -0.03,0 c -0.2,0 -0.66,-0.2 -0.7,-1.34 -0.21,-3.44 -3.69,-5.48 -6.92,-5.48 -2.9,0 -5.4,1.54 -7.99,3.29 -2.69,1.78 -5.38,3.58 -8.61,3.58 -4.64,0 -8.33,-3.53 -8.33,-8.12 0,-1.1 0.41,-1.49 0.71,-1.49 0.5,0 0.7,0.94 0.7,1.14 0.25,4.19 4.33,5.69 6.92,5.69 2.89,0 5.38,-1.55 7.97,-3.3 2.69,-1.79 5.38,-3.59 8.63,-3.59 4.62,0 8.31,3.55 8.31,8.12 z"
           id="path5550" /><path
           style="fill:#000000;stroke-width:0"
           inkscape:connector-curvature="0"
           d="m 777.21,417.06 0,0.07 0,0.06 -0.01,0.06 0,0.07 0,0.06 -0.01,0.05 0,0.06 -0.01,0.05 -0.01,0.05 0,0.06 -0.01,0.04 -0.01,0.05 -0.01,0.05 -0.01,0.04 -0.01,0.04 -0.01,0.04 -0.01,0.04 -0.01,0.04 -0.01,0.04 -0.01,0.03 -0.02,0.03 -0.01,0.04 -0.01,0.03 -0.02,0.03 -0.01,0.02 -0.01,0.03 -0.03,0.05 -0.03,0.05 -0.03,0.04 -0.03,0.03 -0.03,0.04 -0.03,0.02 -0.03,0.03 -0.03,0.02 -0.03,0.02 -0.03,0.01 -0.02,0.02 -0.03,0.01 -0.02,0.01 -0.02,0 -0.02,0.01 -0.02,0 -0.02,0 -0.01,0 -0.01,0.01 c -0.2,0 -0.66,-0.25 -0.7,-1.35 -0.21,-3.44 -3.69,-5.48 -6.92,-5.48 -2.9,0 -5.4,1.54 -7.99,3.29 -2.69,1.79 -5.38,3.58 -8.61,3.58 -4.64,0 -8.33,-3.53 -8.33,-8.12 0,-1.1 0.41,-1.49 0.71,-1.49 0.5,0 0.7,0.94 0.7,1.14 0.25,4.19 4.33,5.69 6.92,5.69 2.89,0 5.38,-1.55 7.97,-3.3 2.69,-1.79 5.38,-3.57 8.63,-3.57 4.73,0 8.31,3.68 8.31,8.06 z"
           id="path5552" /><path
           style="fill:#000000;stroke-width:0"
           inkscape:connector-curvature="0"
           d="m 809.19,424.23 0.33,0.18 0.33,0.17 0.32,0.19 0.31,0.19 0.3,0.19 0.3,0.2 0.29,0.2 0.28,0.2 0.27,0.21 0.26,0.22 0.25,0.21 0.25,0.23 0.23,0.22 0.22,0.24 0.22,0.23 0.2,0.24 0.19,0.24 0.19,0.25 0.17,0.25 0.16,0.26 0.15,0.26 0.13,0.27 0.13,0.27 0.11,0.27 0.1,0.28 0.09,0.28 0.08,0.28 0.06,0.29 0.05,0.29 0.03,0.3 0.02,0.3 0.01,0.31 c 0,4.59 -4.44,7.44 -8.97,7.44 l -0.05,-1.25 c 3.64,0 6.83,-2.6 6.83,-6.19 0,-2.83 -1.95,-5.22 -4.94,-6.97 l -6.17,3.98 c -2.3,1.5 -2.5,3.19 -2.5,4.04 0,3.04 3.25,5.14 6.78,5.14 l 0.05,1.25 c -4.98,0 -9.02,-3.69 -9.02,-8.33 0,-0.89 0.1,-3.14 2.19,-5.49 0.55,-0.59 2.39,-1.84 3.64,-2.68 l 1.14,-0.75 6.14,-3.88 c 1.39,-0.95 3.74,-2.45 3.74,-5.48 0,-3.69 -3.74,-6.28 -7.83,-6.28 -4.28,0 -7.87,3.09 -7.87,7.21 0,2.9 1.59,6.08 5.82,8.43 h 0 l -1.14,0.75 c -2.89,-1.44 -7.17,-4.24 -7.17,-9.18 0,-5.28 5.08,-8.6 10.31,-8.6 5.63,0 10.36,4.14 10.36,9.46 0,1.79 -0.54,4.04 -2.44,6.13 -0.95,1.05 -1.74,1.55 -4.93,3.53 z"
           id="path5554" /><path
           style="fill:#000000;stroke-width:0"
           inkscape:connector-curvature="0"
           d="m 833.21,423.73 0.38,0.13 0.37,0.15 0.36,0.15 0.36,0.17 0.35,0.18 0.33,0.19 0.33,0.2 0.33,0.22 0.31,0.22 0.3,0.23 0.29,0.24 0.28,0.25 0.28,0.26 0.26,0.27 0.24,0.27 0.24,0.29 0.23,0.29 0.21,0.3 0.2,0.3 0.19,0.32 0.17,0.32 0.16,0.32 0.15,0.33 0.13,0.34 0.12,0.34 0.1,0.34 0.09,0.35 0.07,0.36 0.06,0.36 0.04,0.36 0.03,0.36 0.01,0.37 c 0,4.08 -4.4,6.88 -9.18,6.88 -5.03,0 -8.81,-3 -8.81,-6.78 0,-1.65 1.09,-2.6 2.55,-2.6 1.53,0 2.53,1.1 2.53,2.55 0,2.48 -2.34,2.48 -3.08,2.48 1.53,2.44 4.83,3.1 6.63,3.1 2.03,0 4.78,-1.1 4.78,-5.58 0,-0.61 -0.11,-3.49 -1.41,-5.69 -1.48,-2.39 -3.19,-2.53 -4.42,-2.59 -0.41,-0.05 -1.59,-0.14 -1.95,-0.14 -0.39,-0.05 -0.75,-0.1 -0.75,-0.6 0,-0.54 0.36,-0.54 1.2,-0.54 h 2.19 c 4.09,0 5.94,-3.39 5.94,-8.29 0,-6.76 -3.44,-8.21 -5.65,-8.21 -2.14,0 -5.87,0.84 -7.6,3.78 1.73,-0.24 3.28,0.86 3.28,2.75 0,1.79 -1.35,2.78 -2.8,2.78 -1.19,0 -2.78,-0.69 -2.78,-2.89 0,-4.53 4.62,-7.81 10.06,-7.81 6.08,0 10.61,4.53 10.61,9.6 0,4.1 -3.14,7.97 -8.31,9.02 z"
           id="path5556" /><path
           style="fill:#000000;stroke-width:0"
           inkscape:connector-curvature="0"
           d="m 863,423.34 v -13.36 c 0,-2.23 -0.55,-2.23 -3.9,-2.23 v -1.55 c 1.75,0.05 4.29,0.16 5.63,0.16 1.3,0 3.89,-0.11 5.58,-0.16 v 1.55 c -3.33,0 -3.88,0 -3.88,2.23 v 9.17 c 0,5.19 3.54,7.97 6.72,7.97 3.14,0 3.69,-2.69 3.69,-5.53 v -11.61 c 0,-2.23 -0.55,-2.23 -3.89,-2.23 v -1.55 c 1.75,0.05 4.3,0.16 5.64,0.16 1.3,0 3.88,-0.11 5.58,-0.16 v 1.55 c -2.6,0 -3.85,0 -3.89,1.5 v 9.51 c 0,4.28 0,5.83 -1.55,7.61 -0.69,0.86 -2.34,1.84 -5.22,1.84 -3.64,0 -5.98,-2.14 -7.37,-5.21 v 5.21 l -7.04,-0.54 v -1.55 c 3.49,0 3.9,-0.34 3.9,-2.78 z"
           id="path5558" /><path
           style="fill:#000000;stroke-width:0"
           inkscape:connector-curvature="0"
           d="m 895.59,415.87 0.11,-0.02 0.13,-0.02 0.14,-0.03 0.16,-0.04 0.17,-0.04 0.17,-0.04 0.19,-0.05 0.2,-0.06 0.21,-0.06 0.21,-0.07 0.21,-0.08 0.22,-0.08 0.22,-0.1 0.22,-0.1 0.22,-0.11 0.22,-0.12 0.22,-0.14 0.21,-0.14 0.21,-0.15 0.19,-0.16 0.19,-0.18 0.18,-0.19 0.17,-0.2 0.16,-0.21 0.14,-0.22 0.07,-0.12 0.06,-0.12 0.06,-0.13 0.05,-0.12 0.05,-0.14 0.05,-0.13 0.04,-0.14 0.03,-0.14 0.04,-0.15 0.02,-0.15 0.02,-0.16 0.02,-0.15 0,-0.17 0.01,-0.16 c 0,-2.53 -1.75,-4.53 -5.63,-4.53 -4.18,0 -5.98,2.84 -6.93,7.07 -0.15,0.64 -0.19,0.85 -0.69,0.85 -0.66,0 -0.66,-0.35 -0.66,-1.25 v -6.58 c 0,-0.84 0,-1.19 0.55,-1.19 0.25,0 0.3,0.05 1.25,1 0.09,0.1 0.09,0.19 1,1.14 2.18,-2.09 4.43,-2.14 5.48,-2.14 5.72,0 8.02,3.35 8.02,6.92 0,2.64 -1.5,4.14 -2.1,4.74 -1.64,1.59 -3.59,2 -5.68,2.39 -2.79,0.55 -6.13,1.2 -6.13,4.09 0,1.74 1.3,3.78 5.58,3.78 5.48,0 5.73,-4.48 5.83,-6.03 0.06,-0.45 0.5,-0.45 0.61,-0.45 0.64,0 0.64,0.25 0.64,1.2 v 5.03 c 0,0.85 0,1.19 -0.55,1.19 -0.25,0 -0.34,0 -1,-0.59 -0.14,-0.21 -0.64,-0.64 -0.84,-0.8 -1.89,1.39 -3.94,1.39 -4.69,1.39 -6.08,0 -7.97,-3.33 -7.97,-6.12 0,-1.74 0.8,-3.14 2.14,-4.24 1.59,-1.29 3,-1.59 6.58,-2.28 z"
           id="path5560" /></g>    </g>
    <text
       sodipodi:linespacing="125%"
       id="text5626"
       y="901.31476"
       x="176.62946"
       style="font-size:12px;font-style:normal;font-variant:normal;font-weight:normal;font-stretch:normal;text-align:start;line-height:125%;letter-spacing:0px;word-spacing:0px;writing-mode:lr-tb;text-anchor:start;fill:#000000;fill-opacity:1;stroke:none;font-family:Sans;-inkscape-font-specification:Sans"
       xml:space="preserve"><tspan
         y="901.31476"
         x="176.62946"
         id="tspan5628"
         sodipodi:role="line">K</tspan></text>
    <text
       xml:space="preserve"
       style="font-size:12px;font-style:normal;font-variant:normal;font-weight:normal;font-stretch:normal;text-align:start;line-height:125%;letter-spacing:0px;word-spacing:0px;writing-mode:lr-tb;text-anchor:start;fill:#000000;fill-opacity:1;stroke:none;font-family:Sans;-inkscape-font-specification:Sans"
       x="197.06744"
       y="901.31476"
       id="text5630"
       sodipodi:linespacing="125%"><tspan
         sodipodi:role="line"
         id="tspan5632"
         x="197.06744"
         y="901.31476">J</tspan></text>
    <text
       xml:space="preserve"
       style="font-size:12px;font-style:normal;font-variant:normal;font-weight:normal;font-stretch:normal;text-align:start;line-height:125%;letter-spacing:0px;word-spacing:0px;writing-mode:lr-tb;text-anchor:start;fill:#000000;fill-opacity:1;stroke:none;font-family:Sans;-inkscape-font-specification:Sans"
       x="213.97746"
       y="901.31476"
       id="text5634"
       sodipodi:linespacing="125%"><tspan
         sodipodi:role="line"
         id="tspan5636"
         x="213.97746"
         y="901.31476">K</tspan></text>
    <text
       sodipodi:linespacing="125%"
       id="text5638"
       y="901.31476"
       x="234.41547"
       style="font-size:12px;font-style:normal;font-variant:normal;font-weight:normal;font-stretch:normal;text-align:start;line-height:125%;letter-spacing:0px;word-spacing:0px;writing-mode:lr-tb;text-anchor:start;fill:#000000;fill-opacity:1;stroke:none;font-family:Sans;-inkscape-font-specification:Sans"
       xml:space="preserve"><tspan
         y="901.31476"
         x="234.41547"
         id="tspan5640"
         sodipodi:role="line">J</tspan></text>
    <text
       sodipodi:linespacing="125%"
       id="text5642"
       y="901.31476"
       x="251.32547"
       style="font-size:12px;font-style:normal;font-variant:normal;font-weight:normal;font-stretch:normal;text-align:start;line-height:125%;letter-spacing:0px;word-spacing:0px;writing-mode:lr-tb;text-anchor:start;fill:#000000;fill-opacity:1;stroke:none;font-family:Sans;-inkscape-font-specification:Sans"
       xml:space="preserve"><tspan
         y="901.31476"
         x="251.32547"
         id="tspan5644"
         sodipodi:role="line">K</tspan></text>
    <text
       xml:space="preserve"
       style="font-size:12px;font-style:normal;font-variant:normal;font-weight:normal;font-stretch:normal;text-align:start;line-height:125%;letter-spacing:0px;word-spacing:0px;writing-mode:lr-tb;text-anchor:start;fill:#000000;fill-opacity:1;stroke:none;font-family:Sans;-inkscape-font-specification:Sans"
       x="271.76349"
       y="901.31476"
       id="text5646"
       sodipodi:linespacing="125%"><tspan
         sodipodi:role="line"
         id="tspan5648"
         x="271.76349"
         y="901.31476">J</tspan></text>
    <text
       xml:space="preserve"
       style="font-size:12px;font-style:normal;font-variant:normal;font-weight:normal;font-stretch:normal;text-align:start;line-height:125%;letter-spacing:0px;word-spacing:0px;writing-mode:lr-tb;text-anchor:start;fill:#000000;fill-opacity:1;stroke:none;font-family:Sans;-inkscape-font-specification:Sans"
       x="288.67346"
       y="901.31476"
       id="text5650"
       sodipodi:linespacing="125%"><tspan
         sodipodi:role="line"
         id="tspan5652"
         x="288.67346"
         y="901.31476">K</tspan></text>
    <text
       sodipodi:linespacing="125%"
       id="text5654"
       y="901.31476"
       x="327.78549"
       style="font-size:12px;font-style:normal;font-variant:normal;font-weight:normal;font-stretch:normal;text-align:start;line-height:125%;letter-spacing:0px;word-spacing:0px;writing-mode:lr-tb;text-anchor:start;fill:#000000;fill-opacity:1;stroke:none;font-family:Sans;-inkscape-font-specification:Sans"
       xml:space="preserve"><tspan
         y="901.31476"
         x="327.78549"
         id="tspan5656"
         sodipodi:role="line">J</tspan></text>
    <text
       sodipodi:linespacing="125%"
       id="text5658"
       y="901.31476"
       x="307.34747"
       style="font-size:12px;font-style:normal;font-variant:normal;font-weight:normal;font-stretch:normal;text-align:start;line-height:125%;letter-spacing:0px;word-spacing:0px;writing-mode:lr-tb;text-anchor:start;fill:#000000;fill-opacity:1;stroke:none;font-family:Sans;-inkscape-font-specification:Sans"
       xml:space="preserve"><tspan
         y="901.31476"
         x="307.34747"
         id="tspan5660"
         sodipodi:role="line">K</tspan></text>
    <text
       xml:space="preserve"
       style="font-size:12px;font-style:normal;font-variant:normal;font-weight:normal;font-stretch:normal;text-align:start;line-height:125%;letter-spacing:0px;word-spacing:0px;writing-mode:lr-tb;text-anchor:start;fill:#000000;fill-opacity:1;stroke:none;font-family:Sans;-inkscape-font-specification:Sans"
       x="346.4595"
       y="901.31476"
       id="text5662"
       sodipodi:linespacing="125%"><tspan
         sodipodi:role="line"
         id="tspan5664"
         x="346.4595"
         y="901.31476">J</tspan></text>
    <text
       xml:space="preserve"
       style="font-size:12px;font-style:normal;font-variant:normal;font-weight:normal;font-stretch:normal;text-align:start;line-height:125%;letter-spacing:0px;word-spacing:0px;writing-mode:lr-tb;text-anchor:start;fill:#000000;fill-opacity:1;stroke:none;font-family:Sans;-inkscape-font-specification:Sans"
       x="363.36951"
       y="901.31476"
       id="text5666"
       sodipodi:linespacing="125%"><tspan
         sodipodi:role="line"
         id="tspan5668"
         x="363.36951"
         y="901.31476">K</tspan></text>
    <text
       sodipodi:linespacing="125%"
       id="text5670"
       y="901.31476"
       x="382.04349"
       style="font-size:12px;font-style:normal;font-variant:normal;font-weight:normal;font-stretch:normal;text-align:start;line-height:125%;letter-spacing:0px;word-spacing:0px;writing-mode:lr-tb;text-anchor:start;fill:#000000;fill-opacity:1;stroke:none;font-family:Sans;-inkscape-font-specification:Sans"
       xml:space="preserve"><tspan
         y="901.31476"
         x="382.04349"
         id="tspan5672"
         sodipodi:role="line">K</tspan></text>
    <text
       xml:space="preserve"
       style="font-size:12px;font-style:normal;font-variant:normal;font-weight:normal;font-stretch:normal;text-align:start;line-height:125%;letter-spacing:0px;word-spacing:0px;writing-mode:lr-tb;text-anchor:start;fill:#000000;fill-opacity:1;stroke:none;font-family:Sans;-inkscape-font-specification:Sans"
       x="400.7175"
       y="901.31476"
       id="text5674"
       sodipodi:linespacing="125%"><tspan
         sodipodi:role="line"
         id="tspan5676"
         x="400.7175"
         y="901.31476">K</tspan></text>
    <text
       sodipodi:linespacing="125%"
       id="text5678"
       y="901.31476"
       x="421.15552"
       style="font-size:12px;font-style:normal;font-variant:normal;font-weight:normal;font-stretch:normal;text-align:start;line-height:125%;letter-spacing:0px;word-spacing:0px;writing-mode:lr-tb;text-anchor:start;fill:#000000;fill-opacity:1;stroke:none;font-family:Sans;-inkscape-font-specification:Sans"
       xml:space="preserve"><tspan
         y="901.31476"
         x="421.15552"
         id="tspan5680"
         sodipodi:role="line">J</tspan></text>
    <text
       xml:space="preserve"
       style="font-size:12px;font-style:normal;font-variant:normal;font-weight:normal;font-stretch:normal;text-align:start;line-height:125%;letter-spacing:0px;word-spacing:0px;writing-mode:lr-tb;text-anchor:start;fill:#000000;fill-opacity:1;stroke:none;font-family:Sans;-inkscape-font-specification:Sans"
       x="439.82953"
       y="901.31476"
       id="text5682"
       sodipodi:linespacing="125%"><tspan
         sodipodi:role="line"
         id="tspan5684"
         x="439.82953"
         y="901.31476">J</tspan></text>
    <text
       sodipodi:linespacing="125%"
       id="text5686"
       y="901.31476"
       x="456.7395"
       style="font-size:12px;font-style:normal;font-variant:normal;font-weight:normal;font-stretch:normal;text-align:start;line-height:125%;letter-spacing:0px;word-spacing:0px;writing-mode:lr-tb;text-anchor:start;fill:#000000;fill-opacity:1;stroke:none;font-family:Sans;-inkscape-font-specification:Sans"
       xml:space="preserve"><tspan
         y="901.31476"
         x="456.7395"
         id="tspan5688"
         sodipodi:role="line">K</tspan></text>
    <text
       sodipodi:linespacing="125%"
       id="text5690"
       y="901.31476"
       x="514.52551"
       style="font-size:12px;font-style:normal;font-variant:normal;font-weight:normal;font-stretch:normal;text-align:start;line-height:125%;letter-spacing:0px;word-spacing:0px;writing-mode:lr-tb;text-anchor:start;fill:#000000;fill-opacity:1;stroke:none;font-family:Sans;-inkscape-font-specification:Sans"
       xml:space="preserve"><tspan
         y="901.31476"
         x="514.52551"
         id="tspan5692"
         sodipodi:role="line">J</tspan></text>
    <text
       xml:space="preserve"
       style="font-size:12px;font-style:normal;font-variant:normal;font-weight:normal;font-stretch:normal;text-align:start;line-height:125%;letter-spacing:0px;word-spacing:0px;writing-mode:lr-tb;text-anchor:start;fill:#000000;fill-opacity:1;stroke:none;font-family:Sans;-inkscape-font-specification:Sans"
       x="476.53552"
       y="901.31476"
       id="text5694"
       sodipodi:linespacing="125%"><tspan
         sodipodi:role="line"
         id="tspan5696"
         x="476.53552"
         y="901.31476">0</tspan></text>
    <text
       sodipodi:linespacing="125%"
       id="text5698"
       y="901.31476"
       x="495.20953"
       style="font-size:12px;font-style:normal;font-variant:normal;font-weight:normal;font-stretch:normal;text-align:start;line-height:125%;letter-spacing:0px;word-spacing:0px;writing-mode:lr-tb;text-anchor:start;fill:#000000;fill-opacity:1;stroke:none;font-family:Sans;-inkscape-font-specification:Sans"
       xml:space="preserve"><tspan
         y="901.31476"
         x="495.20953"
         id="tspan5700"
         sodipodi:role="line">0</tspan></text>
    <text
       sodipodi:linespacing="125%"
       id="text5704"
       y="946.29614"
       x="18.365494"
       style="font-size:16px;font-style:normal;font-variant:normal;font-weight:normal;font-stretch:normal;text-align:start;line-height:125%;letter-spacing:0px;word-spacing:0px;writing-mode:lr-tb;text-anchor:start;fill:#000000;fill-opacity:1;stroke:none;font-family:FreeSans;-inkscape-font-specification:FreeSans"
       xml:space="preserve"><tspan
         y="946.29614"
         x="18.365494"
         id="tspan5706"
         sodipodi:role="line" /></text>
    <text
       sodipodi:linespacing="125%"
       id="text5708"
       y="901.05676"
       x="13.307076"
       style="font-size:14px;font-style:normal;font-variant:normal;font-weight:normal;font-stretch:normal;text-align:start;line-height:125%;letter-spacing:0px;word-spacing:0px;writing-mode:lr-tb;text-anchor:start;fill:#000000;fill-opacity:1;stroke:none;font-family:Sans;-inkscape-font-specification:Sans"
       xml:space="preserve"><tspan
         id="tspan5712"
         y="901.05676"
         x="13.307076"
         sodipodi:role="line">Differential decoding</tspan></text>
    <text
       sodipodi:linespacing="125%"
       id="text5716"
       y="924.505"
       x="12.696865"
       style="font-size:14px;font-style:normal;font-variant:normal;font-weight:normal;font-stretch:normal;text-indent:0;text-align:start;text-decoration:none;line-height:125%;letter-spacing:0px;word-spacing:0px;text-transform:none;direction:ltr;block-progression:tb;writing-mode:lr-tb;text-anchor:start;baseline-shift:baseline;color:#000000;fill:#000000;fill-opacity:1;fill-rule:nonzero;stroke:none;marker:none;visibility:visible;display:inline;overflow:visible;enable-background:accumulate;font-family:Sans;-inkscape-font-specification:Sans"
       xml:space="preserve"><tspan
         y="924.505"
         x="12.696865"
         id="tspan5718"
         sodipodi:role="line">NRZI decoding</tspan></text>
    <text
       xml:space="preserve"
       style="font-size:12px;font-style:normal;font-variant:normal;font-weight:normal;font-stretch:normal;text-align:start;line-height:125%;letter-spacing:0px;word-spacing:0px;writing-mode:lr-tb;text-anchor:start;fill:#000000;fill-opacity:1;stroke:none;font-family:Sans;-inkscape-font-specification:Sans"
       x="326.93298"
       y="924.505"
       id="text5747"
       sodipodi:linespacing="125%"><tspan
         sodipodi:role="line"
         id="tspan5749"
         x="326.93298"
         y="924.505">0</tspan></text>
    <text
       sodipodi:linespacing="125%"
       id="text5751"
       y="924.51086"
       x="346.11041"
       style="font-size:12px;font-style:normal;font-variant:normal;font-weight:normal;font-stretch:normal;text-align:start;line-height:125%;letter-spacing:0px;word-spacing:0px;writing-mode:lr-tb;text-anchor:start;fill:#000000;fill-opacity:1;stroke:none;font-family:Sans;-inkscape-font-specification:Sans"
       xml:space="preserve"><tspan
         y="924.51086"
         x="346.11041"
         id="tspan5753"
         sodipodi:role="line">1</tspan></text>
    <text
       sodipodi:linespacing="125%"
       id="text5755"
       y="924.505"
       x="364.07584"
       style="font-size:12px;font-style:normal;font-variant:normal;font-weight:normal;font-stretch:normal;text-align:start;line-height:125%;letter-spacing:0px;word-spacing:0px;writing-mode:lr-tb;text-anchor:start;fill:#000000;fill-opacity:1;stroke:none;font-family:Sans;-inkscape-font-specification:Sans"
       xml:space="preserve"><tspan
         y="924.505"
         x="364.07584"
         id="tspan5757"
         sodipodi:role="line">0</tspan></text>
    <text
       xml:space="preserve"
       style="font-size:12px;font-style:normal;font-variant:normal;font-weight:normal;font-stretch:normal;text-align:start;line-height:125%;letter-spacing:0px;word-spacing:0px;writing-mode:lr-tb;text-anchor:start;fill:#000000;fill-opacity:1;stroke:none;font-family:Sans;-inkscape-font-specification:Sans"
       x="383.25327"
       y="924.51086"
       id="text5759"
       sodipodi:linespacing="125%"><tspan
         sodipodi:role="line"
         id="tspan5761"
         x="383.25327"
         y="924.51086">1</tspan></text>
    <text
       sodipodi:linespacing="125%"
       id="text5763"
       y="924.51086"
       x="401.82468"
       style="font-size:12px;font-style:normal;font-variant:normal;font-weight:normal;font-stretch:normal;text-align:start;line-height:125%;letter-spacing:0px;word-spacing:0px;writing-mode:lr-tb;text-anchor:start;fill:#000000;fill-opacity:1;stroke:none;font-family:Sans;-inkscape-font-specification:Sans"
       xml:space="preserve"><tspan
         y="924.51086"
         x="401.82468"
         id="tspan5765"
         sodipodi:role="line">1</tspan></text>
    <text
       xml:space="preserve"
       style="font-size:12px;font-style:normal;font-variant:normal;font-weight:normal;font-stretch:normal;text-align:start;line-height:125%;letter-spacing:0px;word-spacing:0px;writing-mode:lr-tb;text-anchor:start;fill:#000000;fill-opacity:1;stroke:none;font-family:Sans;-inkscape-font-specification:Sans"
       x="419.79013"
       y="924.505"
       id="text5767"
       sodipodi:linespacing="125%"><tspan
         sodipodi:role="line"
         id="tspan5769"
         x="419.79013"
         y="924.505">0</tspan></text>
    <text
       xml:space="preserve"
       style="font-size:12px;font-style:normal;font-variant:normal;font-weight:normal;font-stretch:normal;text-align:start;line-height:125%;letter-spacing:0px;word-spacing:0px;writing-mode:lr-tb;text-anchor:start;fill:#000000;fill-opacity:1;stroke:none;font-family:Sans;-inkscape-font-specification:Sans"
       x="438.96753"
       y="924.51086"
       id="text5771"
       sodipodi:linespacing="125%"><tspan
         sodipodi:role="line"
         id="tspan5773"
         x="438.96753"
         y="924.51086">1</tspan></text>
    <text
       sodipodi:linespacing="125%"
       id="text5775"
       y="924.505"
       x="456.93298"
       style="font-size:12px;font-style:normal;font-variant:normal;font-weight:normal;font-stretch:normal;text-align:start;line-height:125%;letter-spacing:0px;word-spacing:0px;writing-mode:lr-tb;text-anchor:start;fill:#000000;fill-opacity:1;stroke:none;font-family:Sans;-inkscape-font-specification:Sans"
       xml:space="preserve"><tspan
         y="924.505"
         x="456.93298"
         id="tspan5777"
         sodipodi:role="line">0</tspan></text>
    <text
       sodipodi:linespacing="125%"
       id="text5779"
       y="958.35712"
       x="12.840443"
       style="font-size:14px;font-style:normal;font-variant:normal;font-weight:normal;font-stretch:normal;text-indent:0;text-align:start;text-decoration:none;line-height:125%;letter-spacing:0px;word-spacing:0px;text-transform:none;direction:ltr;block-progression:tb;writing-mode:lr-tb;text-anchor:start;baseline-shift:baseline;color:#000000;fill:#000000;fill-opacity:1;fill-rule:nonzero;stroke:none;stroke-width:1;marker:none;visibility:visible;display:inline;overflow:visible;enable-background:accumulate;font-family:Sans;-inkscape-font-specification:Sans"
       xml:space="preserve"><tspan
         y="958.35712"
         x="12.840443"
         id="tspan5781"
         sodipodi:role="line">Packet format</tspan></text>
    <rect
       y="937.55664"
       x="171.07362"
       height="31.162441"
       width="147.98735"
       id="rect5802"
       style="color:#000000;fill:#fce94f;stroke:#000000;stroke-width:0.99999994;stroke-linecap:butt;stroke-linejoin:miter;stroke-miterlimit:4;stroke-opacity:1;stroke-dasharray:none;stroke-dashoffset:0;marker:none;visibility:visible;display:inline;overflow:visible;enable-background:accumulate" />
    <text
       sodipodi:linespacing="100%"
       id="text5804"
       y="950.44843"
       x="244.81827"
       style="font-size:12px;font-style:normal;font-variant:normal;font-weight:normal;font-stretch:normal;text-align:center;line-height:100%;letter-spacing:0px;word-spacing:0px;writing-mode:lr-tb;text-anchor:middle;fill:#000000;fill-opacity:1;stroke:none;font-family:Sans;-inkscape-font-specification:Sans"
       xml:space="preserve"><tspan
         y="950.44843"
         x="244.81827"
         id="tspan5806"
         sodipodi:role="line">Start of packet</tspan><tspan
         y="962.44843"
         x="244.81827"
         sodipodi:role="line"
         id="tspan6162">/ clock sync</tspan></text>
    <rect
       style="color:#000000;fill:#8ae234;stroke:#000000;stroke-width:1;stroke-linecap:butt;stroke-linejoin:miter;stroke-miterlimit:4;stroke-opacity:1;stroke-dasharray:none;stroke-dashoffset:0;marker:none;visibility:visible;display:inline;overflow:visible;enable-background:accumulate"
       id="rect5808"
       width="145.46198"
       height="31.162441"
       x="323.60663"
       y="937.55664" />
    <text
       xml:space="preserve"
       style="font-size:12px;font-style:normal;font-variant:normal;font-weight:normal;font-stretch:normal;text-indent:0;text-align:center;text-decoration:none;line-height:100%;letter-spacing:0px;word-spacing:0px;text-transform:none;direction:ltr;block-progression:tb;writing-mode:lr-tb;text-anchor:middle;baseline-shift:baseline;color:#000000;fill:#000000;fill-opacity:1;fill-rule:nonzero;stroke:none;marker:none;visibility:visible;display:inline;overflow:visible;enable-background:accumulate;font-family:Sans;-inkscape-font-specification:Sans"
       x="396.20309"
       y="950.90546"
       id="text5810"
       sodipodi:linespacing="100%"><tspan
         sodipodi:role="line"
         id="tspan5812"
         x="396.20309"
         y="950.90546">Packet ID</tspan><tspan
         sodipodi:role="line"
         x="396.20309"
         y="962.90546"
         id="tspan6193">(LSB first, 1010 = NAK)</tspan></text>
    <rect
       style="color:#000000;fill:#fce94f;stroke:#000000;stroke-width:0.99999994;stroke-linecap:butt;stroke-linejoin:miter;stroke-miterlimit:4;stroke-opacity:1;stroke-dasharray:none;stroke-dashoffset:0;marker:none;visibility:visible;display:inline;overflow:visible;enable-background:accumulate"
       id="rect5814"
       width="59.628742"
       height="31.162441"
       x="473.61426"
       y="937.55664" />
    <text
       sodipodi:linespacing="100%"
       id="text5816"
       y="950.44843"
       x="502.79779"
       style="font-size:12px;font-style:normal;font-variant:normal;font-weight:normal;font-stretch:normal;text-indent:0;text-align:center;text-decoration:none;line-height:100%;letter-spacing:0px;word-spacing:0px;text-transform:none;direction:ltr;block-progression:tb;writing-mode:lr-tb;text-anchor:middle;baseline-shift:baseline;color:#000000;fill:#000000;fill-opacity:1;fill-rule:nonzero;stroke:none;marker:none;visibility:visible;display:inline;overflow:visible;enable-background:accumulate;font-family:Sans;-inkscape-font-specification:Sans"
       xml:space="preserve"><tspan
         y="950.44843"
         x="502.79779"
         id="tspan5818"
         sodipodi:role="line">End</tspan><tspan
         y="962.44843"
         x="502.79779"
         sodipodi:role="line"
         id="tspan6195">of packet</tspan></text>
    <g
       id="g5983"
       transform="matrix(0.52393906,0,0,0.52393906,439.92511,653.84875)">
      <g
         word-spacing="normal"
         letter-spacing="normal"
         font-size-adjust="none"
         font-stretch="normal"
         font-weight="normal"
         font-variant="normal"
         font-style="normal"
         stroke-miterlimit="10.433"
         xml:space="preserve"
         transform="matrix(0.42857143,0,0,-0.42857143,-75,450)"
         id="g5985"
         style="font-style:normal;font-variant:normal;font-weight:normal;font-stretch:normal;letter-spacing:normal;word-spacing:normal;text-anchor:start;fill:none;stroke:#000000;stroke-width:1.90861893;stroke-linecap:butt;stroke-linejoin:miter;stroke-miterlimit:10.43299961;stroke-opacity:1;stroke-dasharray:none;stroke-dashoffset:0"><path
           id="path5987"
           d="m 477.54,440.98 -0.04,0.06 -0.03,0.06 -0.03,0.05 -0.02,0.05 -0.03,0.05 -0.03,0.05 -0.03,0.05 -0.02,0.04 -0.03,0.04 -0.03,0.04 -0.02,0.04 -0.03,0.03 -0.03,0.04 -0.03,0.03 -0.03,0.03 -0.03,0.03 -0.03,0.02 -0.04,0.03 -0.04,0.02 -0.03,0.02 -0.05,0.02 -0.04,0.01 -0.05,0.02 -0.04,0.01 -0.06,0.01 -0.05,0.01 -0.06,0.01 -0.06,0.01 -0.07,0 -0.07,0.01 -0.07,0 -0.04,0 -0.04,0 c -0.85,0 -0.94,-0.25 -1.28,-0.89 l -0.32,-4.09 13.41,-26.91 h -26.86 l 13.45,26.91 0.32,4.09 -16.85,-33.78 c -0.25,-0.45 -0.25,-0.55 -0.25,-0.59 0,-0.41 0.3,-0.41 1.1,-0.41 h 34.58 c 0.79,0 1.09,0 1.09,0.41 0,0.04 0,0.14 -0.25,0.59 z"
           inkscape:connector-curvature="0"
           style="fill:#000000;stroke-width:0" /><path
           id="path5989"
           d="m 528.32,434.54 0.23,0.36 0.23,0.33 0.22,0.31 0.22,0.29 0.22,0.28 0.22,0.25 0.22,0.24 0.21,0.22 0.22,0.2 0.21,0.19 0.21,0.17 0.2,0.16 0.21,0.14 0.2,0.13 0.2,0.12 0.2,0.11 0.2,0.09 0.2,0.09 0.19,0.07 0.2,0.07 0.19,0.06 0.19,0.05 0.18,0.04 0.19,0.03 0.18,0.03 0.19,0.03 0.36,0.04 0.35,0.02 0.35,0.02 c 0.59,0.05 0.64,0.89 0.64,0.96 0,0.39 -0.25,0.59 -0.64,0.59 -1.3,0 -2.75,-0.16 -4.09,-0.16 -1.64,0 -3.35,0.16 -4.94,0.16 -0.3,0 -0.94,0 -0.94,-0.95 0,-0.55 0.46,-0.6 0.8,-0.6 1.34,-0.09 2.3,-0.59 2.3,-1.64 0,-0.75 -0.75,-1.84 -0.75,-1.89 l -15.3,-24.31 -3.39,26.34 c 0,0.85 1.14,1.5 3.44,1.5 0.7,0 1.25,0 1.25,1 0,0.44 -0.41,0.55 -0.71,0.55 -1.98,0 -4.14,-0.16 -6.17,-0.16 -0.91,0 -1.84,0.05 -2.75,0.05 -0.89,0 -1.84,0.11 -2.69,0.11 -0.34,0 -0.93,0 -0.93,-0.95 0,-0.6 0.43,-0.6 1.23,-0.6 2.8,0 2.84,-0.45 3,-1.68 l 3.92,-30.75 c 0.16,-1 0.36,-1.14 1,-1.14 0.8,0 1,0.25 1.41,0.89 z"
           inkscape:connector-curvature="0"
           style="fill:#000000;stroke-width:0" /><path
           id="path5991"
           d="m 585.27,422.5 0.14,0 0.15,0 0.14,0 0.07,0.01 0.08,0 0.07,0.01 0.07,0.01 0.07,0.01 0.07,0.01 0.07,0.01 0.06,0.02 0.07,0.02 0.06,0.02 0.06,0.02 0.06,0.03 0.06,0.03 0.05,0.04 0.05,0.03 0.05,0.05 0.04,0.04 0.04,0.05 0.02,0.03 0.02,0.03 0.01,0.02 0.02,0.03 0.01,0.03 0.02,0.04 0.01,0.03 0.01,0.04 0.01,0.03 0.01,0.04 0,0.04 0.01,0.04 0,0.04 0.01,0.04 0,0.04 0,0.05 c 0,1 -0.95,1 -1.64,1 h -29.84 c -0.71,0 -1.64,0 -1.64,-1 0,-0.98 0.93,-0.98 1.68,-0.98 z"
           inkscape:connector-curvature="0"
           style="fill:#000000;stroke-width:0" /><path
           id="path5993"
           d="m 585.32,412.82 0.07,0 0.06,0 0.14,0.01 0.14,0 0.07,0 0.07,0.01 0.07,0.01 0.07,0 0.06,0.01 0.07,0.02 0.07,0.01 0.06,0.02 0.07,0.02 0.06,0.02 0.06,0.02 0.06,0.03 0.05,0.03 0.05,0.04 0.05,0.04 0.05,0.04 0.04,0.05 0.02,0.02 0.02,0.03 0.02,0.02 0.02,0.03 0.01,0.03 0.02,0.03 0.01,0.03 0.02,0.03 0.01,0.04 0.01,0.03 0.01,0.04 0.01,0.04 0,0.04 0.01,0.04 0,0.04 0.01,0.04 0,0.05 0,0.04 c 0,1 -0.95,1 -1.69,1 h -29.75 c -0.75,0 -1.68,0 -1.68,-1 0,-1 0.93,-1 1.64,-1 z"
           inkscape:connector-curvature="0"
           style="fill:#000000;stroke-width:0" /><path
           id="path5995"
           d="m 618.05,423.73 0.38,0.13 0.37,0.15 0.37,0.15 0.35,0.17 0.35,0.18 0.34,0.19 0.33,0.2 0.32,0.22 0.31,0.22 0.3,0.23 0.3,0.24 0.28,0.25 0.27,0.26 0.26,0.27 0.25,0.27 0.23,0.29 0.23,0.29 0.21,0.3 0.2,0.3 0.19,0.32 0.17,0.32 0.17,0.32 0.14,0.33 0.13,0.34 0.12,0.34 0.11,0.34 0.08,0.35 0.08,0.36 0.06,0.36 0.04,0.36 0.02,0.36 0.01,0.37 c 0,4.08 -4.39,6.88 -9.17,6.88 -5.03,0 -8.82,-3 -8.82,-6.78 0,-1.65 1.1,-2.6 2.55,-2.6 1.53,0 2.53,1.1 2.53,2.55 0,2.48 -2.34,2.48 -3.08,2.48 1.54,2.44 4.83,3.1 6.63,3.1 2.03,0 4.78,-1.1 4.78,-5.58 0,-0.61 -0.11,-3.49 -1.41,-5.69 -1.48,-2.39 -3.18,-2.53 -4.42,-2.59 -0.4,-0.05 -1.59,-0.14 -1.95,-0.14 -0.39,-0.05 -0.75,-0.1 -0.75,-0.6 0,-0.54 0.36,-0.54 1.2,-0.54 h 2.19 c 4.1,0 5.94,-3.39 5.94,-8.29 0,-6.76 -3.44,-8.21 -5.64,-8.21 -2.14,0 -5.88,0.84 -7.61,3.78 1.73,-0.24 3.28,0.86 3.28,2.75 0,1.79 -1.34,2.78 -2.8,2.78 -1.19,0 -2.78,-0.69 -2.78,-2.89 0,-4.53 4.63,-7.81 10.06,-7.81 6.08,0 10.61,4.53 10.61,9.6 0,4.1 -3.14,7.97 -8.31,9.02 z"
           inkscape:connector-curvature="0"
           style="fill:#000000;stroke-width:0" /><path
           id="path5997"
           d="m 673.29,435.34 0.07,0.17 0.07,0.17 0.07,0.17 0.09,0.16 0.08,0.16 0.09,0.16 0.1,0.15 0.1,0.15 0.11,0.15 0.11,0.14 0.12,0.14 0.12,0.14 0.14,0.13 0.14,0.12 0.14,0.12 0.16,0.12 0.16,0.11 0.17,0.1 0.18,0.1 0.19,0.09 0.2,0.09 0.2,0.08 0.22,0.07 0.23,0.07 0.23,0.06 0.25,0.06 0.25,0.04 0.27,0.04 0.28,0.03 0.28,0.03 0.31,0.02 0.31,0 v 1.55 c -1.55,-0.11 -3.55,-0.16 -4.85,-0.16 -1.48,0 -4.37,0.11 -5.67,0.16 v -1.55 c 2.59,-0.04 3.64,-1.34 3.64,-2.48 0,-0.41 -0.15,-0.7 -0.25,-1 l -9.12,-24.02 -9.52,25.16 c -0.3,0.7 -0.3,0.8 -0.3,0.89 0,1.45 2.85,1.45 4.08,1.45 v 1.55 c -1.78,-0.16 -5.22,-0.16 -7.11,-0.16 -2.4,0 -4.54,0.11 -6.33,0.16 v -1.55 c 3.24,0 4.18,0 4.88,-1.89 l 11.56,-30.59 c 0.35,-0.95 0.6,-1.09 1.25,-1.09 0.85,0 0.94,0.25 1.19,0.93 z"
           inkscape:connector-curvature="0"
           style="fill:#000000;stroke-width:0" /></g>    </g>
    <path
       style="color:#000000;fill:none;stroke:#000000;stroke-width:1;stroke-linecap:butt;stroke-linejoin:miter;stroke-miterlimit:4;stroke-opacity:1;stroke-dasharray:none;stroke-dashoffset:0;marker:none;marker-start:url(#Arrow1Mend);marker-end:url(#Arrow1Mstart);visibility:visible;display:inline;overflow:visible;enable-background:accumulate"
       d="m 508.57405,833.96846 0,-25.73103"
       id="path6128"
       inkscape:connector-curvature="0" />
    <text
       xml:space="preserve"
       style="font-size:14px;font-style:normal;font-variant:normal;font-weight:normal;font-stretch:normal;text-align:start;line-height:125%;letter-spacing:0px;word-spacing:0px;writing-mode:lr-tb;text-anchor:start;fill:#000000;fill-opacity:1;stroke:none;font-family:Sans;-inkscape-font-specification:Sans"
       x="13.307083"
       y="840.18958"
       id="text6130"
       sodipodi:linespacing="125%"><tspan
         sodipodi:role="line"
         x="13.307083"
         y="840.18958"
         id="tspan6207">Voltage signal in</tspan><tspan
         sodipodi:role="line"
         x="13.307083"
         y="857.68958"
         id="tspan6211">the differential pair</tspan></text>
  </g>
</svg>
