<?xml version="1.0" encoding="UTF-8" standalone="no"?>
<!DOCTYPE svg PUBLIC "-//W3C//DTD SVG 1.1//EN" "http://www.w3.org/Graphics/SVG/1.1/DTD/svg11.dtd">
<svg width="410" height="150" viewBox="0 0 410 150" version="1.1" xmlns="http://www.w3.org/2000/svg" xmlns:xlink="http://www.w3.org/1999/xlink" xml:space="preserve" xmlns:serif="http://www.serif.com/" style="fill-rule:evenodd;clip-rule:evenodd;stroke-linecap:round;stroke-linejoin:round;stroke-miterlimit:1.5;">
    <g transform="matrix(9.36582,0,0,9.36582,-1489.89,-1148.59)">
        <g transform="matrix(0.106771,0,0,0.106771,157.155,125.306)">
            <path d="M353.003,-0.005C380.599,-0.005 403.003,22.399 403.003,49.995C403.003,77.59 380.599,99.994 353.003,99.995L93.003,99.995C65.407,99.995 43.003,77.591 43.003,49.995C43.003,22.399 65.407,-0.005 93.003,-0.005L353.003,-0.005Z" style="fill:rgb(179,179,179);stroke:black;stroke-width:8px;"/>
        </g>
        <g transform="matrix(0.106771,0,0,0.106771,156.408,121.302)">
            <path d="M100.003,52.5L360.003,52.5C379.321,52.5 395.003,68.183 395.003,87.5C395.003,106.817 379.32,122.5 360.003,122.5C360.003,122.5 100.003,122.5 100.003,122.5C80.686,122.5 65.003,106.817 65.003,87.5C65.003,68.183 80.686,52.5 100.003,52.5Z" style="fill:rgb(230,230,230);stroke:black;stroke-width:2px;"/>
        </g>
    </g>
    <g transform="matrix(1,0,0,1,-20,-53)">
        <g transform="matrix(9.36582,0,0,9.36582,-1471.02,-1108.58)">
            <g transform="matrix(1.00002,0,0,0.976295,0.141729,11.9059)">
                <rect x="193.537" y="125.886" width="1.388" height="1.203" style="fill:rgb(252,238,33);stroke:black;stroke-width:0.21px;stroke-linecap:butt;stroke-linejoin:miter;stroke-miterlimit:4;"/>
            </g>
            <g transform="matrix(1.00002,0,0,0.976295,0.128439,11.9059)">
                <rect x="191.133" y="125.886" width="1.388" height="1.203" style="fill:rgb(252,238,33);stroke:black;stroke-width:0.21px;stroke-linecap:butt;stroke-linejoin:miter;stroke-miterlimit:4;"/>
            </g>
            <g transform="matrix(1.00002,0,0,0.976295,0.115154,11.9059)">
                <rect x="188.73" y="125.886" width="1.388" height="1.203" style="fill:rgb(252,238,33);stroke:black;stroke-width:0.21px;stroke-linecap:butt;stroke-linejoin:miter;stroke-miterlimit:4;"/>
            </g>
            <g transform="matrix(1.00002,0,0,0.976295,0.101869,11.9059)">
                <rect x="186.327" y="125.886" width="1.388" height="1.203" style="fill:rgb(252,238,33);stroke:black;stroke-width:0.21px;stroke-linecap:butt;stroke-linejoin:miter;stroke-miterlimit:4;"/>
            </g>
            <g transform="matrix(1.00002,0,0,0.976295,0.0885845,11.9059)">
                <rect x="183.924" y="125.886" width="1.388" height="1.203" style="fill:rgb(252,238,33);stroke:black;stroke-width:0.21px;stroke-linecap:butt;stroke-linejoin:miter;stroke-miterlimit:4;"/>
            </g>
            <g transform="matrix(1.00002,0,0,0.976295,0.0752997,11.9059)">
                <rect x="181.521" y="125.886" width="1.388" height="1.203" style="fill:rgb(252,238,33);stroke:black;stroke-width:0.21px;stroke-linecap:butt;stroke-linejoin:miter;stroke-miterlimit:4;"/>
            </g>
            <g transform="matrix(1.00002,0,0,0.976295,0.0620094,11.9059)">
                <rect x="179.117" y="125.886" width="1.388" height="1.203" style="fill:rgb(252,238,33);stroke:black;stroke-width:0.21px;stroke-linecap:butt;stroke-linejoin:miter;stroke-miterlimit:4;"/>
            </g>
            <g transform="matrix(1.00002,0,0,0.976295,0.0487246,11.9059)">
                <rect x="176.714" y="125.886" width="1.388" height="1.203" style="fill:rgb(252,238,33);stroke:black;stroke-width:0.21px;stroke-linecap:butt;stroke-linejoin:miter;stroke-miterlimit:4;"/>
            </g>
            <g transform="matrix(1.00002,0,0,0.976295,0.0354399,11.9059)">
                <rect x="174.311" y="125.886" width="1.388" height="1.203" style="fill:rgb(252,238,33);stroke:black;stroke-width:0.21px;stroke-linecap:butt;stroke-linejoin:miter;stroke-miterlimit:4;"/>
            </g>
            <g transform="matrix(1.00002,0,0,0.976295,0.0221551,11.9059)">
                <rect x="171.908" y="125.886" width="1.388" height="1.203" style="fill:rgb(252,238,33);stroke:black;stroke-width:0.21px;stroke-linecap:butt;stroke-linejoin:miter;stroke-miterlimit:4;"/>
            </g>
            <g transform="matrix(1.00002,0,0,0.976295,0.0088703,11.9059)">
                <rect x="169.505" y="125.886" width="1.388" height="1.203" style="fill:rgb(252,238,33);stroke:black;stroke-width:0.21px;stroke-linecap:butt;stroke-linejoin:miter;stroke-miterlimit:4;"/>
            </g>
            <g transform="matrix(1.00002,0,0,0.976295,-0.00441448,11.9059)">
                <rect x="167.102" y="125.886" width="1.388" height="1.203" style="fill:rgb(252,238,33);stroke:black;stroke-width:0.21px;stroke-linecap:butt;stroke-linejoin:miter;stroke-miterlimit:4;"/>
            </g>
        </g>
        <g transform="matrix(9.36582,0,0,9.36582,-1471.02,-1083.08)">
            <g transform="matrix(1.00002,0,0,0.976295,0.141729,6.44282)">
                <rect x="193.537" y="121.803" width="1.388" height="1.203" style="fill:rgb(252,238,33);stroke:black;stroke-width:0.21px;stroke-linecap:butt;stroke-linejoin:miter;stroke-miterlimit:4;"/>
            </g>
            <g transform="matrix(1.00002,0,0,0.976295,0.128439,6.44282)">
                <rect x="191.133" y="121.803" width="1.388" height="1.203" style="fill:rgb(252,238,33);stroke:black;stroke-width:0.21px;stroke-linecap:butt;stroke-linejoin:miter;stroke-miterlimit:4;"/>
            </g>
            <g transform="matrix(1.00002,0,0,0.976295,0.115154,6.44282)">
                <rect x="188.73" y="121.803" width="1.388" height="1.203" style="fill:rgb(252,238,33);stroke:black;stroke-width:0.21px;stroke-linecap:butt;stroke-linejoin:miter;stroke-miterlimit:4;"/>
            </g>
            <g transform="matrix(1.00002,0,0,0.976295,0.101869,6.44282)">
                <rect x="186.327" y="121.803" width="1.388" height="1.203" style="fill:rgb(252,238,33);stroke:black;stroke-width:0.21px;stroke-linecap:butt;stroke-linejoin:miter;stroke-miterlimit:4;"/>
            </g>
            <g transform="matrix(1.00002,0,0,0.976295,0.0885845,6.44282)">
                <rect x="183.924" y="121.803" width="1.388" height="1.203" style="fill:rgb(252,238,33);stroke:black;stroke-width:0.21px;stroke-linecap:butt;stroke-linejoin:miter;stroke-miterlimit:4;"/>
            </g>
            <g transform="matrix(1.00002,0,0,0.976295,0.0752997,6.44282)">
                <rect x="181.521" y="121.803" width="1.388" height="1.203" style="fill:rgb(252,238,33);stroke:black;stroke-width:0.21px;stroke-linecap:butt;stroke-linejoin:miter;stroke-miterlimit:4;"/>
            </g>
            <g transform="matrix(1.00002,0,0,0.976295,0.0620094,6.44282)">
                <rect x="179.117" y="121.803" width="1.388" height="1.203" style="fill:rgb(252,238,33);stroke:black;stroke-width:0.21px;stroke-linecap:butt;stroke-linejoin:miter;stroke-miterlimit:4;"/>
            </g>
            <g transform="matrix(1.00002,0,0,0.976295,0.0487246,6.44282)">
                <rect x="176.714" y="121.803" width="1.388" height="1.203" style="fill:rgb(252,238,33);stroke:black;stroke-width:0.21px;stroke-linecap:butt;stroke-linejoin:miter;stroke-miterlimit:4;"/>
            </g>
            <g transform="matrix(1.00002,0,0,0.976295,0.0354399,6.44282)">
                <rect x="174.311" y="121.803" width="1.388" height="1.203" style="fill:rgb(252,238,33);stroke:black;stroke-width:0.21px;stroke-linecap:butt;stroke-linejoin:miter;stroke-miterlimit:4;"/>
            </g>
            <g transform="matrix(1.00002,0,0,0.976295,0.0221551,6.44282)">
                <rect x="171.908" y="121.803" width="1.388" height="1.203" style="fill:rgb(252,238,33);stroke:black;stroke-width:0.21px;stroke-linecap:butt;stroke-linejoin:miter;stroke-miterlimit:4;"/>
            </g>
            <g transform="matrix(1.00002,0,0,0.976295,0.0088703,6.44282)">
                <rect x="169.505" y="121.803" width="1.388" height="1.203" style="fill:rgb(252,238,33);stroke:black;stroke-width:0.21px;stroke-linecap:butt;stroke-linejoin:miter;stroke-miterlimit:4;"/>
            </g>
            <g transform="matrix(1.00002,0,0,0.976295,-0.00441448,6.44282)">
                <rect x="167.102" y="121.803" width="1.388" height="1.203" style="fill:rgb(252,238,33);stroke:black;stroke-width:0.21px;stroke-linecap:butt;stroke-linejoin:miter;stroke-miterlimit:4;"/>
            </g>
        </g>
    </g>
</svg>
