<?xml version="1.0" encoding="utf-8"?>
<!DOCTYPE svg PUBLIC "-//W3C//DTD SVG 1.1//EN" "http://www.w3.org/Graphics/SVG/1.1/DTD/svg11.dtd">
<svg version="1.1" xmlns="http://www.w3.org/2000/svg" x="0" y="0" width="460" height="260" viewBox="0 -1.5 460 260">
<style type="text/css">
	.st0{fill:#B3B3B3;stroke:#000;stroke-width:5;}
	.st1{fill:#B3B3B3;}
	.st2{fill:none;stroke:#000;stroke-width:5;}
	.st3{fill:none;stroke:#000;stroke-width:4;}
	.st4{fill:#808080;stroke:#000;stroke-width:5;}
	.st5{fill:#ccc;stroke:#000;stroke-width:5;}
	.st6{fill:#FCEE21;stroke:#000;stroke-width:3;}
	.st7{font-family:Liberation Sans,Arial;}
	.st8{font-size:48px;}
	.st9{font-size:60px;}
</style>
<g id="usb">
	<g>
		<rect x="54.2" y="129.4" class="st0" width="13.5" height="60"/>
		<rect x="392.3" y="129.4" class="st0" width="13.5" height="60"/>
		<rect x="352.6" y="175.9" class="st0" width="60" height="13.5"/>
		<path class="st0" d="M354.7,185.4h-1.6V63.6h1.6c26.5,0,48,21.5,48,48v25.7C402.7,163.9,381.3,185.4,354.7,185.4z"/>
		<rect x="45.7" y="175.9" class="st0" width="60" height="13.5"/>
		<path class="st0" d="M103.8,185.4h3V63.6h-3c-26.5,0-48,21.5-48,48v25.7C55.8,163.9,77.3,185.4,103.8,185.4z"/>
		<g>
			<g>
				<path class="st1" d="M211.1,199.6h-85.4c-10.4,0-18.9-8.5-18.9-18.9v-9.6H230v9.6C230,191.2,221.5,199.6,211.1,199.6z"/>
				<path class="st1" d="M211.8,189.4h-86.7c-10.1,0-18.2-8.2-18.2-18.2v0H230v0C230,181.2,221.8,189.4,211.8,189.4z"/>
				<path class="st1" d="M334.3,199.6h-85.4c-10.4,0-18.9-8.5-18.9-18.9v-9.6h123.2v9.6C353.2,191.2,344.7,199.6,334.3,199.6z"/>
				<path class="st1" d="M334.9,189.4h-86.7c-10.1,0-18.2-8.2-18.2-18.2v0h123.2v0C353.2,181.2,345,189.4,334.9,189.4z"/>
			</g>
			<g>
				<path class="st2" d="M211.1,199.6h-85.4c-10.4,0-18.9-8.5-18.9-18.9v-9.6H230v9.6C230,191.2,221.5,199.6,211.1,199.6z"/>
				<path class="st3" d="M211.8,189.4h-86.7c-10.1,0-18.2-8.2-18.2-18.2v0H230v0C230,181.2,221.8,189.4,211.8,189.4z"/>
				<path class="st2" d="M334.3,199.6h-85.4c-10.4,0-18.9-8.5-18.9-18.9v-9.6h123.2v9.6C353.2,191.2,344.7,199.6,334.3,199.6z"/>
				<path class="st3" d="M334.9,189.4h-86.7c-10.1,0-18.2-8.2-18.2-18.2v0h123.2v0C353.2,181.2,345,189.4,334.9,189.4z"/>
			</g>
			<g>
				<path class="st2" d="M211.1,199.6h-85.4c-10.4,0-18.9-8.5-18.9-18.9v-9.6H230v9.6C230,191.2,221.5,199.6,211.1,199.6z"/>
				<path class="st2" d="M211.8,189.4h-86.7c-10.1,0-18.2-8.2-18.2-18.2v0H230v0C230,181.2,221.8,189.4,211.8,189.4z"/>
				<path class="st2" d="M334.3,199.6h-85.4c-10.4,0-18.9-8.5-18.9-18.9v-9.6h123.2v9.6C353.2,191.2,344.7,199.6,334.3,199.6z"/>
				<path class="st2" d="M334.9,189.4h-86.7c-10.1,0-18.2-8.2-18.2-18.2v0h123.2v0C353.2,181.2,345,189.4,334.9,189.4z"/>
			</g>
		</g>
		<path class="st0" d="M375,78.6H85v-3.9c0-14.4,11.7-26.1,26.1-26.1h237.8c14.4,0,26.1,11.7,26.1,26.1V78.6z"/>
		<path class="st2" d="M375,78.6H85v0c0-10,8.1-18.2,18.2-18.2h253.6C366.9,60.4,375,68.6,375,78.6L375,78.6z"/>
		<path class="st0" d="M62.5,132H69V95h-6.5C52.3,95,44,103.3,44,113.5v0C44,123.7,52.3,132,62.5,132z"/>
		<path class="st2" d="M69,132L69,132l0-37h0c-8.3,0-15,6.7-15,15v7C54,125.3,60.7,132,69,132z"/>
		<path class="st0" d="M401,132h-10V95h10c8.3,0,15,6.7,15,15v7C416,125.3,409.3,132,401,132z"/>
		<path class="st2" d="M391,132L391,132l0-37h0c8.3,0,15,6.7,15,15v7C406,125.3,399.3,132,391,132z"/>
		<path class="st4" d="M353.2,171.1H106.8C96.7,166,76.4,147.4,69,132v-26.3c0-14.9,12.1-27.1,27.1-27.1h267.8
			c14.9,0,27.1,12.1,27.1,27.1V132C391,146.9,375.2,159.6,353.2,171.1z"/>
		<path class="st5" d="M300.3,92.3H159.7c-5.5,0-10,4.5-10,10v9.9c0,5.5,4.5,10,10,10h0.2l1.2-11.9H178l1.2,11.9h11l1.2-11.9h16.9
			l1.2,11.9h11l1.2-11.9h16.9l1.2,11.9h11l1.2-11.9h16.9l1.2,11.9h11l1.2-11.9h16.9l1.2,11.9h0.2c5.5,0,10-4.5,10-10v-9.9
			C310.3,96.8,305.8,92.3,300.3,92.3z"/>
		<polygon class="st6" points="178.7,116.8 160.5,116.8 161.2,110.3 178,110.3 		"/>
		<polygon class="st6" points="208.9,116.8 190.7,116.8 191.4,110.3 208.2,110.3 		"/>
		<polygon class="st6" points="239.1,116.8 220.9,116.8 221.6,110.3 238.4,110.3 		"/>
		<polygon class="st6" points="269.3,116.8 251.1,116.8 251.8,110.3 268.7,110.3 		"/>
		<polygon class="st6" points="299.5,116.8 281.4,116.8 282,110.3 298.9,110.3 		"/>
	</g>
</g>
<g id="text">
	<text transform="matrix(1 0 0 1 156 39)" class="st7 st8">1</text>
	<text transform="matrix(1 0 0 1 187 39)" class="st7 st8">2</text>
	<text transform="matrix(1 0 0 1 219 39)" class="st7 st8">3</text>
	<text transform="matrix(1 0 0 1 247 39)" class="st7 st8">4</text>
	<text transform="matrix(1 0 0 1 278 39)" class="st7 st8">5</text>
	<text transform="matrix(1 0 0 1 127 250)" class="st7 st9">Micro-B</text>	
</g>
</svg>
