<?xml version="1.0" encoding="utf-8"?>
<!DOCTYPE svg PUBLIC "-//W3C//DTD SVG 1.1//EN" "http://www.w3.org/Graphics/SVG/1.1/DTD/svg11.dtd">
<svg version="1.1" xmlns="http://www.w3.org/2000/svg" x="0px" y="0px" width="450" height="300" viewBox="0 0 450 300">
<style type="text/css">
	.st0{fill:#E6E6E6;stroke:#000000;stroke-width:8;}
	.st1{font-family:Liberation Sans,sans-serif;}
	.st2{font-size:60px;}
	.st3{font-size:48px;}
	.st4{fill:#B3B3B3;stroke:#000000;stroke-width:2;}
	.st5{fill:#FCEE21;stroke:#000000;stroke-width:2;}
</style>
<path class="st0" d="M392.3,164H57.8c-6.3,0-11.3-5.1-11.3-11.3V63.3C46.5,57,51.6,52,57.8,52h334.4c6.3,0,11.3,5.1,11.3,11.3v89.3
	C403.6,158.9,398.5,164,392.3,164z"/>
<path class="st4" d="M380,119H70c-2.8,0-5-2.1-5-4.8V73.8c0-2.7,2.2-4.8,5-4.8h310c2.8,0,5,2.1,5,4.8v40.5
	C385,116.9,382.8,119,380,119z"/>
<rect x="85.8" y="113.3" class="st5" width="35" height="13.5"/>
<rect x="172.8" y="113.3" class="st5" width="35" height="13.5"/>
<rect x="242.1" y="113.3" class="st5" width="35" height="13.5"/>
<rect x="329.2" y="113.3" class="st5" width="35" height="13.5"/>
<text transform="matrix(1 0 0 1 128.3645 276.2464)" class="st1 st2">Type-A</text>
<text transform="matrix(1 0 0 1 333.3524 209.7388)" class="st1 st3">4</text>
<text transform="matrix(1 0 0 1 246.2885 209.7388)" class="st1 st3">3</text>
<text transform="matrix(1 0 0 1 176.9105 209.7392)" class="st1 st3">2</text>
<text transform="matrix(1 0 0 1 89.9519 209.7394)" class="st1 st3">1</text>
</svg>
